<?xml version="1.0" encoding="UTF-8" standalone="no"?>
<!-- Created with Inkscape (http://www.inkscape.org/) -->

<svg
   width="21.489649mm"
   height="8.0611973mm"
   viewBox="0 0 21.489649 8.0611973"
   version="1.1"
   id="svg1"
   inkscape:version="1.3.2 (091e20ef0f, 2023-11-25)"
   sodipodi:docname="LaTeX_logo.svg"
   xmlns:inkscape="http://www.inkscape.org/namespaces/inkscape"
   xmlns:sodipodi="http://sodipodi.sourceforge.net/DTD/sodipodi-0.dtd"
   xmlns="http://www.w3.org/2000/svg"
   xmlns:svg="http://www.w3.org/2000/svg">
  <sodipodi:namedview
     id="namedview1"
     pagecolor="#505050"
     bordercolor="#eeeeee"
     borderopacity="1"
     inkscape:showpageshadow="0"
     inkscape:pageopacity="0"
     inkscape:pagecheckerboard="0"
     inkscape:deskcolor="#505050"
     inkscape:document-units="mm"
     inkscape:zoom="7.7459543"
     inkscape:cx="40.66639"
     inkscape:cy="15.233759"
     inkscape:window-width="1484"
     inkscape:window-height="455"
     inkscape:window-x="141"
     inkscape:window-y="141"
     inkscape:window-maximized="0"
     inkscape:current-layer="layer1" />
  <defs
     id="defs1" />
  <g
     inkscape:label="Layer 1"
     inkscape:groupmode="layer"
     id="layer1"
     transform="translate(-104.453,-148.5)">
    <g
       inkscape:label=""
       transform="translate(104.453,148.5)"
       id="g1">
      <g
         fill="#000000"
         fill-opacity="1"
         id="g6"
         transform="matrix(0.352778,0,0,0.352778,-1.14957,-0.497902)">
        <g
           id="use5"
           transform="translate(1.993,18.927)">
          <path
             d="m 13.4375,-6.265625 h -0.453125 c -0.203125,2.453125 -0.515625,5.625 -4.75,5.625 h -2.3125 c -0.984375,0 -1.046875,-0.125 -1.046875,-0.96875 v -13.53125 c 0,-0.890625 0.0625,-1.140625 1.9375,-1.140625 h 0.546875 v -0.640625 C 6.34375,-16.875 5.15625,-16.875 4.140625,-16.875 c -0.765625,0 -2.15625,0 -2.875,-0.04687 v 0.640625 c 1.703125,0 1.984375,0 1.984375,1.109375 v 13.40625 c 0,1.125 -0.28125,1.125 -1.984375,1.125 V 0 H 12.84375 Z m 0,0"
             id="path10" />
        </g>
      </g>
      <g
         fill="#000000"
         fill-opacity="1"
         id="g7"
         transform="matrix(0.352778,0,0,0.352778,-1.14957,-0.497902)">
        <g
           id="use6"
           transform="translate(8.0906267,18.927)">
          <path
             d="m 9,-17.125 c -0.125,-0.328125 -0.171875,-0.390625 -0.421875,-0.390625 -0.25,0 -0.296875,0.0625 -0.421875,0.390625 l -5.25,14.875 C 2.421875,-0.921875 1.4375,-0.640625 0.5625,-0.640625 V 0 C 1.015625,-0.046875 2,-0.046875 2.484375,-0.046875 c 0.609375,0 1.609375,0 2.203125,0.046875 V -0.640625 C 3.515625,-0.6875 3.34375,-1.484375 3.34375,-1.78125 3.34375,-2 3.390625,-2.125 3.4375,-2.28125 l 1.328125,-3.6875 H 11.25 l 1.484375,4.203125 c 0.125,0.296875 0.125,0.359375 0.125,0.453125 0,0.671875 -1.0625,0.671875 -1.53125,0.671875 V 0 c 0.71875,-0.046875 2,-0.046875 2.765625,-0.046875 0.65625,0 1.890625,0 2.484375,0.046875 v -0.640625 c -1.3125,0 -1.765625,0 -2.078125,-0.921875 z m -1,1.984375 3.03125,8.53125 H 4.984375 Z m 0,0"
             id="path11" />
        </g>
      </g>
      <g
         fill="#000000"
         fill-opacity="1"
         id="g8"
         transform="matrix(0.352778,0,0,0.352778,-1.14957,-0.497902)">
        <g
           id="use7"
           transform="translate(21.854902,18.927)">
          <path
             d="M 15.40625,-16.84375 H 1.109375 L 0.6875,-11.375 H 1.140625 C 1.46875,-15.484375 1.8125,-16.203125 5.625,-16.203125 c 0.453125,0 1.171875,0 1.359375,0.01563 0.46875,0.07813 0.46875,0.375 0.46875,0.953125 V -1.8125 c 0,0.890625 -0.0625,1.171875 -2.125,1.171875 h -0.6875 V 0 c 1.1875,-0.03125 2.421875,-0.046875 3.640625,-0.046875 1.203125,0 2.453125,0.015625 3.640625,0.046875 V -0.640625 H 11.21875 c -2.046875,0 -2.125,-0.28125 -2.125,-1.171875 v -13.421875 c 0,-0.546875 0,-0.84375 0.453125,-0.953125 0.1875,-0.01563 0.90625,-0.01563 1.359375,-0.01563 3.78125,0 4.15625,0.71875 4.484375,4.828125 h 0.4375 z m 0,0"
             id="path12" />
        </g>
      </g>
      <g
         fill="#000000"
         fill-opacity="1"
         id="g9"
         transform="matrix(0.352778,0,0,0.352778,-1.14957,-0.497902)">
        <g
           id="use8"
           transform="translate(34.617001,24.261999)">
          <path
             d="M 15.046875,-6.265625 H 14.59375 c -0.546875,3.640625 -0.859375,5.625 -5.21875,5.625 H 5.921875 c -0.984375,0 -1.046875,-0.125 -1.046875,-0.96875 v -6.84375 h 2.34375 c 2.328125,0 2.546875,0.84375 2.546875,2.90625 h 0.4375 V -12 h -0.4375 c 0,2.0625 -0.21875,2.90625 -2.546875,2.90625 H 4.875 v -6.171875 c 0,-0.84375 0.0625,-0.96875 1.046875,-0.96875 H 9.3125 c 3.84375,0 4.296875,1.546875 4.640625,4.828125 h 0.4375 L 13.796875,-16.875 H 1.265625 v 0.640625 c 1.703125,0 1.984375,0 1.984375,1.125 v 13.34375 c 0,1.125 -0.28125,1.125 -1.984375,1.125 V 0 H 14.15625 Z m 0,0"
             id="path13" />
        </g>
      </g>
      <g
         fill="#000000"
         fill-opacity="1"
         id="g10"
         transform="matrix(0.352778,0,0,0.352778,-1.14957,-0.497902)">
        <g
           id="use9"
           transform="translate(47.346001,18.927)">
          <path
             d="m 9.046875,-9.390625 3.671875,-5.28125 C 13.078125,-15.1875 13.828125,-16.25 15.859375,-16.28125 v -0.640625 C 15.296875,-16.875 14.34375,-16.875 13.75,-16.875 c -0.8125,0 -1.828125,0 -2.453125,-0.04687 v 0.640625 c 0.796875,0.07813 1,0.5625 1,0.96875 0,0.296875 -0.125,0.5 -0.296875,0.734375 L 8.71875,-9.84375 5.0625,-15.1875 c -0.1875,-0.28125 -0.203125,-0.34375 -0.203125,-0.421875 0,-0.21875 0.265625,-0.640625 1.09375,-0.671875 v -0.640625 C 5.15625,-16.875 3.9375,-16.875 3.125,-16.875 c -0.640625,0 -1.890625,0 -2.484375,-0.04687 v 0.640625 c 1.359375,0 1.8125,0.04687 2.359375,0.8125 l 4.78125,7 -4.3125,6.265625 c -1.0625,1.53125 -2.671875,1.5625 -3.140625,1.5625 V 0 c 0.5625,-0.046875 1.5,-0.046875 2.09375,-0.046875 0.671875,0 1.84375,0 2.453125,0.046875 V -0.640625 C 4.109375,-0.71875 3.890625,-1.21875 3.890625,-1.609375 c 0,-0.328125 0.125,-0.5 0.25,-0.671875 l 3.96875,-5.75 4.3125,6.296875 c 0.1875,0.265625 0.1875,0.34375 0.1875,0.421875 0,0.203125 -0.21875,0.625 -1.09375,0.671875 V 0 c 0.796875,-0.046875 2.015625,-0.046875 2.828125,-0.046875 0.65625,0 1.890625,0 2.484375,0.046875 V -0.640625 C 15.234375,-0.640625 15,-0.765625 14.5,-1.46875 Z m 0,0"
             id="path14" />
        </g>
      </g>
    </g>
  </g>
</svg>
