<?xml version="1.0" encoding="UTF-8" standalone="no"?>
<!-- Created with Inkscape (http://www.inkscape.org/) -->

<svg
   width="148.86139mm"
   height="136.41652mm"
   viewBox="0 0 148.86139 136.41652"
   version="1.1"
   id="svg1"
   inkscape:version="1.4.3 (0d15f75042, 2025-12-25)"
   sodipodi:docname="logo.svg"
   xmlns:inkscape="http://www.inkscape.org/namespaces/inkscape"
   xmlns:sodipodi="http://sodipodi.sourceforge.net/DTD/sodipodi-0.dtd"
   xmlns="http://www.w3.org/2000/svg"
   xmlns:svg="http://www.w3.org/2000/svg">
  <sodipodi:namedview
     id="namedview1"
     pagecolor="#37474f"
     bordercolor="#000000"
     borderopacity="0.25"
     inkscape:showpageshadow="2"
     inkscape:pageopacity="0.0"
     inkscape:pagecheckerboard="0"
     inkscape:deskcolor="#d1d1d1"
     inkscape:document-units="mm"
     inkscape:zoom="1.8328518"
     inkscape:cx="281.2557"
     inkscape:cy="257.79499"
     inkscape:window-width="1920"
     inkscape:window-height="1168"
     inkscape:window-x="0"
     inkscape:window-y="0"
     inkscape:window-maximized="1"
     inkscape:current-layer="layer1" />
  <defs
     id="defs1" />
  <g
     inkscape:label="Layer 1"
     inkscape:groupmode="layer"
     id="layer1"
     transform="translate(-33.866583,-5.2916674)">
    <g
       id="g78"
       style="stroke:currentColor;stroke-opacity:1">
      <path
         style="fill:none;fill-opacity:1;stroke:currentColor;stroke-width:1.45521;stroke-dasharray:none;stroke-opacity:1"
         d="M 52.058863,109.29202 38.61426,128.95295 v 0"
         id="path1006" />
      <path
         style="fill:none;fill-opacity:1;stroke:currentColor;stroke-width:1.45521;stroke-dasharray:none;stroke-opacity:1"
         d="m 52.49256,90.932183 0.144566,46.550137 v 0"
         id="path1005" />
      <path
         style="fill:none;fill-opacity:1;stroke:currentColor;stroke-width:1.45521;stroke-dasharray:none;stroke-opacity:1"
         d="M 70.129566,11.565653 38.469694,10.409129 38.61426,93.823497 52.926257,110.01485 v 0"
         id="path1004" />
      <path
         style="fill:none;fill-opacity:1;stroke:currentColor;stroke-width:1.45521;stroke-linejoin:round;stroke-dasharray:none;stroke-opacity:1"
         d="m 47.866461,104.23222 -9.252201,8.52937 -0.144566,16.62505 13.733735,8.81851 14.167432,-8.24024 0.867394,-68.957811 c 0,0 23.529557,43.280261 30.503346,49.586011 6.973789,6.30575 10.553289,7.37285 10.553289,7.37285 v 0"
         id="path1007"
         sodipodi:nodetypes="cccccczcc" />
      <path
         style="fill:none;fill-opacity:1;stroke:currentColor;stroke-width:1.45521;stroke-linejoin:round;stroke-dasharray:none;stroke-opacity:1"
         d="m 56.974094,19.516763 v 0 L 39.62622,10.69826 c 0,0 5.096359,15.206436 7.083715,19.227228 1.987357,4.020793 7.467516,13.121467 8.240242,16.191351 0.772726,3.069884 -4.770668,10.842421 -4.770668,10.842421 l 0.722829,15.179392 -3.903271,3.469576 -7.661979,-6.216321 v 0"
         id="path1012"
         sodipodi:nodetypes="ccczzccccc" />
      <path
         style="fill:none;fill-opacity:1;stroke:currentColor;stroke-width:1.45521;stroke-linejoin:round;stroke-dasharray:none;stroke-opacity:1"
         d="M 57.11866,61.729928 56.974094,76.475623 44.396885,84.282164 44.107753,99.31699 v 0"
         id="path1013" />
      <path
         style="fill:none;fill-opacity:1;stroke:currentColor;stroke-width:1.45521;stroke-linejoin:round;stroke-dasharray:none;stroke-opacity:1"
         d="m 56.974094,77.053883 3.120641,8.216979 0.0598,13.467866 v 0"
         id="path1014"
         sodipodi:nodetypes="cccc" />
      <path
         style="fill:none;fill-opacity:1;stroke:currentColor;stroke-width:1.45521;stroke-linejoin:round;stroke-dasharray:none;stroke-opacity:1"
         d="m 53.183533,109.84487 8.527309,7.082 4.480449,11.85151 v 0"
         id="path1021" />
      <path
         style="fill:none;fill-opacity:1;stroke:currentColor;stroke-width:1.45521;stroke-dasharray:none;stroke-opacity:1"
         d="m 164.56385,109.29202 13.44461,19.66093 v 0"
         id="path1022" />
      <path
         style="fill:none;fill-opacity:1;stroke:currentColor;stroke-width:1.45521;stroke-dasharray:none;stroke-opacity:1"
         d="m 164.13015,90.932183 -0.14456,46.550137 v 0"
         id="path1023" />
      <path
         style="fill:none;fill-opacity:1;stroke:currentColor;stroke-width:1.45521;stroke-dasharray:none;stroke-opacity:1"
         d="m 146.49315,11.565653 31.65987,-1.156524 -0.14456,83.414368 -14.312,16.191353 v 0"
         id="path1024" />
      <path
         style="fill:none;fill-opacity:1;stroke:currentColor;stroke-width:1.45521;stroke-linejoin:round;stroke-dasharray:none;stroke-opacity:1"
         d="m 168.75625,104.23222 9.25221,8.52937 0.14456,16.62505 -13.73373,8.81851 -14.16744,-8.24024 -0.86739,-68.957811 c 0,0 -23.52956,43.280261 -30.50335,49.586011 -6.97379,6.30575 -10.55329,7.37285 -10.55329,7.37285 v 0"
         id="path1025"
         sodipodi:nodetypes="cccccczcc" />
      <path
         style="fill:none;fill-opacity:1;stroke:currentColor;stroke-width:1.45521;stroke-linejoin:round;stroke-dasharray:none;stroke-opacity:1"
         d="m 159.64862,19.516763 v 0 L 176.9965,10.69826 c 0,0 -5.09636,15.206436 -7.08372,19.227228 -1.98736,4.020793 -7.46752,13.121467 -8.24024,16.191351 -0.77273,3.069884 4.77067,10.842421 4.77067,10.842421 l -0.72283,15.179392 3.90327,3.469576 7.66198,-6.216321 v 0"
         id="path1026"
         sodipodi:nodetypes="ccczzccccc" />
      <path
         style="fill:none;fill-opacity:1;stroke:currentColor;stroke-width:1.45521;stroke-linejoin:round;stroke-dasharray:none;stroke-opacity:1"
         d="m 159.50406,61.729928 0.14456,14.745695 12.57721,7.806541 0.28913,15.034826 v 0"
         id="path1027" />
      <path
         style="fill:none;fill-opacity:1;stroke:currentColor;stroke-width:1.45521;stroke-linejoin:round;stroke-dasharray:none;stroke-opacity:1"
         d="m 159.64862,77.053883 -3.12064,8.216979 -0.0598,13.467866 v 0"
         id="path1028"
         sodipodi:nodetypes="cccc" />
      <path
         style="fill:none;fill-opacity:1;stroke:currentColor;stroke-width:1.45521;stroke-linejoin:round;stroke-dasharray:none;stroke-opacity:1"
         d="m 163.43918,109.84487 -8.52731,7.082 -4.48045,11.85151 v 0"
         id="path1029" />
      <path
         sodipodi:type="star"
         style="fill:currentColor;stroke:currentColor;stroke-width:15;stroke-opacity:1"
         id="path960"
         inkscape:flatsided="true"
         sodipodi:sides="6"
         sodipodi:cx="402.59177"
         sodipodi:cy="75.38353"
         sodipodi:r1="8.5502825"
         sodipodi:r2="7.4047613"
         sodipodi:arg1="0.46364761"
         sodipodi:arg2="0.98724638"
         inkscape:rounded="0"
         inkscape:randomized="0"
         d="m 410.23937,79.207332 -7.13531,4.711119 -7.64761,-3.823802 -0.51229,-8.534922 7.13531,-4.711119 7.64761,3.823803 z"
         transform="matrix(0.22141131,0.01239142,-0.01312486,0.2090386,-43.893094,33.848496)" />
      <path
         sodipodi:type="star"
         style="fill:currentColor;stroke:currentColor;stroke-width:15;stroke-opacity:1"
         id="path984"
         inkscape:flatsided="true"
         sodipodi:sides="6"
         sodipodi:cx="402.59177"
         sodipodi:cy="75.38353"
         sodipodi:r1="8.5502825"
         sodipodi:r2="7.4047613"
         sodipodi:arg1="0.46364761"
         sodipodi:arg2="0.98724638"
         inkscape:rounded="0"
         inkscape:randomized="0"
         d="m 410.23937,79.207332 -7.13531,4.711119 -7.64761,-3.823802 -0.51229,-8.534922 7.13531,-4.711119 7.64761,3.823803 z"
         transform="matrix(0.22141131,0.01239142,-0.01312486,0.2090386,20.272409,96.55691)"
         inkscape:transform-center-x="-131.64805"
         inkscape:transform-center-y="-54.079491" />
      <path
         sodipodi:type="star"
         style="fill:currentColor;stroke:currentColor;stroke-width:15;stroke-opacity:1"
         id="path955"
         inkscape:flatsided="true"
         sodipodi:sides="6"
         sodipodi:cx="402.59177"
         sodipodi:cy="75.38353"
         sodipodi:r1="8.5502825"
         sodipodi:r2="7.4047613"
         sodipodi:arg1="0.46364761"
         sodipodi:arg2="0.98724638"
         inkscape:rounded="0"
         inkscape:randomized="0"
         d="m 410.23937,79.207332 -7.13531,4.711119 -7.64761,-3.823802 -0.51229,-8.534922 7.13531,-4.711119 7.64761,3.823803 z"
         transform="matrix(0.22141131,0.01239142,-0.01312486,0.2090386,-18.311172,20.090163)" />
      <path
         sodipodi:type="star"
         style="fill:none;fill-opacity:1;stroke:currentColor;stroke-width:5.36199;stroke-dasharray:none;stroke-opacity:1"
         id="path993"
         inkscape:flatsided="true"
         sodipodi:sides="6"
         sodipodi:cx="688.9975"
         sodipodi:cy="42.618404"
         sodipodi:r1="54.11742"
         sodipodi:r2="46.867062"
         sodipodi:arg1="1.5405026"
         sodipodi:arg2="2.0641013"
         inkscape:rounded="0"
         inkscape:randomized="0"
         d="m 690.63667,96.710994 -47.66515,-25.626734 -1.63916,-54.09259 46.02597,-28.465856 47.66514,25.626735 1.63917,54.09259 z"
         transform="matrix(0.27139339,0,0,0.27139339,-104.15606,36.155118)" />
      <path
         sodipodi:type="star"
         style="fill:currentColor;stroke:currentColor;stroke-width:15;stroke-opacity:1"
         id="path934"
         inkscape:flatsided="true"
         sodipodi:sides="6"
         sodipodi:cx="402.59177"
         sodipodi:cy="75.38353"
         sodipodi:r1="8.5502825"
         sodipodi:r2="7.4047613"
         sodipodi:arg1="0.46364761"
         sodipodi:arg2="0.98724638"
         inkscape:rounded="0"
         inkscape:randomized="0"
         d="m 410.23937,79.207332 -7.13531,4.711119 -7.64761,-3.823802 -0.51229,-8.534922 7.13531,-4.711119 7.64761,3.823803 z"
         transform="matrix(0.3094533,0.01731875,-0.01834382,0.29216072,-84.711543,-18.667758)" />
      <path
         sodipodi:type="star"
         style="fill:currentColor;stroke:currentColor;stroke-width:15;stroke-opacity:1"
         id="path935"
         inkscape:flatsided="true"
         sodipodi:sides="6"
         sodipodi:cx="402.59177"
         sodipodi:cy="75.38353"
         sodipodi:r1="8.5502825"
         sodipodi:r2="7.4047613"
         sodipodi:arg1="0.46364761"
         sodipodi:arg2="0.98724638"
         inkscape:rounded="0"
         inkscape:randomized="0"
         d="m 410.23937,79.207332 -7.13531,4.711119 -7.64761,-3.823802 -0.51229,-8.534922 7.13531,-4.711119 7.64761,3.823803 z"
         transform="matrix(0.3094533,0.01731875,-0.01834382,0.29216072,54.905042,-18.667758)" />
      <path
         sodipodi:type="star"
         style="fill:currentColor;stroke:currentColor;stroke-width:15;stroke-opacity:1"
         id="path941"
         inkscape:flatsided="true"
         sodipodi:sides="6"
         sodipodi:cx="402.59177"
         sodipodi:cy="75.38353"
         sodipodi:r1="8.5502825"
         sodipodi:r2="7.4047613"
         sodipodi:arg1="0.46364761"
         sodipodi:arg2="0.98724638"
         inkscape:rounded="0"
         inkscape:randomized="0"
         d="m 410.23937,79.207332 -7.13531,4.711119 -7.64761,-3.823802 -0.51229,-8.534922 7.13531,-4.711119 7.64761,3.823803 z"
         transform="matrix(0.22141131,0.01239142,-0.01312486,0.2090386,-31.02987,-1.1558387)" />
      <path
         sodipodi:type="star"
         style="fill:currentColor;stroke:currentColor;stroke-width:15;stroke-opacity:1"
         id="path942"
         inkscape:flatsided="true"
         sodipodi:sides="6"
         sodipodi:cx="402.59177"
         sodipodi:cy="75.38353"
         sodipodi:r1="8.5502825"
         sodipodi:r2="7.4047613"
         sodipodi:arg1="0.46364761"
         sodipodi:arg2="0.98724638"
         inkscape:rounded="0"
         inkscape:randomized="0"
         d="m 410.23937,79.207332 -7.13531,4.711119 -7.64761,-3.823802 -0.51229,-8.534922 7.13531,-4.711119 7.64761,3.823803 z"
         transform="matrix(0.22141131,0.01239142,-0.01312486,0.2090386,-18.455706,-9.0327578)" />
      <path
         sodipodi:type="star"
         style="fill:currentColor;stroke:currentColor;stroke-width:15;stroke-opacity:1"
         id="path943"
         inkscape:flatsided="true"
         sodipodi:sides="6"
         sodipodi:cx="402.59177"
         sodipodi:cy="75.38353"
         sodipodi:r1="8.5502825"
         sodipodi:r2="7.4047613"
         sodipodi:arg1="0.46364761"
         sodipodi:arg2="0.98724638"
         inkscape:rounded="0"
         inkscape:randomized="0"
         d="m 410.23937,79.207332 -7.13531,4.711119 -7.64761,-3.823802 -0.51229,-8.534922 7.13531,-4.711119 7.64761,3.823803 z"
         transform="matrix(0.22141131,0.01239142,-0.01312486,0.2090386,-5.5924791,-1.3003695)" />
      <path
         sodipodi:type="star"
         style="fill:currentColor;stroke:currentColor;stroke-width:15;stroke-opacity:1"
         id="path944"
         inkscape:flatsided="true"
         sodipodi:sides="6"
         sodipodi:cx="402.59177"
         sodipodi:cy="75.38353"
         sodipodi:r1="8.5502825"
         sodipodi:r2="7.4047613"
         sodipodi:arg1="0.46364761"
         sodipodi:arg2="0.98724638"
         inkscape:rounded="0"
         inkscape:randomized="0"
         d="m 410.23937,79.207332 -7.13531,4.711119 -7.64761,-3.823802 -0.51229,-8.534922 7.13531,-4.711119 7.64761,3.823803 z"
         transform="matrix(0.22141131,0.01239142,-0.01312486,0.2090386,58.145526,-9.0327578)" />
      <path
         sodipodi:type="star"
         style="fill:currentColor;stroke:currentColor;stroke-width:15;stroke-opacity:1"
         id="path945"
         inkscape:flatsided="true"
         sodipodi:sides="6"
         sodipodi:cx="402.59177"
         sodipodi:cy="75.38353"
         sodipodi:r1="8.5502825"
         sodipodi:r2="7.4047613"
         sodipodi:arg1="0.46364761"
         sodipodi:arg2="0.98724638"
         inkscape:rounded="0"
         inkscape:randomized="0"
         d="m 410.23937,79.207332 -7.13531,4.711119 -7.64761,-3.823802 -0.51229,-8.534922 7.13531,-4.711119 7.64761,3.823803 z"
         transform="matrix(0.22141131,0.01239142,-0.01312486,0.2090386,71.370078,-1.155839)" />
      <path
         sodipodi:type="star"
         style="fill:currentColor;stroke:currentColor;stroke-width:15;stroke-opacity:1"
         id="path946"
         inkscape:flatsided="true"
         sodipodi:sides="6"
         sodipodi:cx="402.59177"
         sodipodi:cy="75.38353"
         sodipodi:r1="8.5502825"
         sodipodi:r2="7.4047613"
         sodipodi:arg1="0.46364761"
         sodipodi:arg2="0.98724638"
         inkscape:rounded="0"
         inkscape:randomized="0"
         d="m 410.23937,79.207332 -7.13531,4.711119 -7.64761,-3.823802 -0.51229,-8.534922 7.13531,-4.711119 7.64761,3.823803 z"
         transform="matrix(0.22141131,0.01239142,-0.01312486,0.2090386,71.370078,12.57457)" />
      <path
         sodipodi:type="star"
         style="fill:currentColor;stroke:currentColor;stroke-width:15;stroke-opacity:1"
         id="path947"
         inkscape:flatsided="true"
         sodipodi:sides="6"
         sodipodi:cx="402.59177"
         sodipodi:cy="75.38353"
         sodipodi:r1="8.5502825"
         sodipodi:r2="7.4047613"
         sodipodi:arg1="0.46364761"
         sodipodi:arg2="0.98724638"
         inkscape:rounded="0"
         inkscape:randomized="0"
         d="m 410.23937,79.207332 -7.13531,4.711119 -7.64761,-3.823802 -0.51229,-8.534922 7.13531,-4.711119 7.64761,3.823803 z"
         transform="matrix(0.22141131,0.01239142,-0.01312486,0.2090386,58.723649,20.090163)" />
      <path
         sodipodi:type="star"
         style="fill:currentColor;stroke:currentColor;stroke-width:15;stroke-opacity:1"
         id="path948"
         inkscape:flatsided="true"
         sodipodi:sides="6"
         sodipodi:cx="402.59177"
         sodipodi:cy="75.38353"
         sodipodi:r1="8.5502825"
         sodipodi:r2="7.4047613"
         sodipodi:arg1="0.46364761"
         sodipodi:arg2="0.98724638"
         inkscape:rounded="0"
         inkscape:randomized="0"
         d="m 410.23937,79.207332 -7.13531,4.711119 -7.64761,-3.823802 -0.51229,-8.534922 7.13531,-4.711119 7.64761,3.823803 z"
         transform="matrix(0.22141131,0.01239142,-0.01312486,0.2090386,45.715893,-1.155839)" />
      <path
         sodipodi:type="star"
         style="fill:currentColor;stroke:currentColor;stroke-width:15;stroke-opacity:1"
         id="path949"
         inkscape:flatsided="true"
         sodipodi:sides="6"
         sodipodi:cx="402.59177"
         sodipodi:cy="75.38353"
         sodipodi:r1="8.5502825"
         sodipodi:r2="7.4047613"
         sodipodi:arg1="0.46364761"
         sodipodi:arg2="0.98724638"
         inkscape:rounded="0"
         inkscape:randomized="0"
         d="m 410.23937,79.207332 -7.13531,4.711119 -7.64761,-3.823802 -0.51229,-8.534922 7.13531,-4.711119 7.64761,3.823803 z"
         transform="matrix(0.22141131,0.01239142,-0.01312486,0.2090386,32.997198,20.090163)" />
      <path
         sodipodi:type="star"
         style="fill:currentColor;stroke:currentColor;stroke-width:15;stroke-opacity:1"
         id="path951"
         inkscape:flatsided="true"
         sodipodi:sides="6"
         sodipodi:cx="402.59177"
         sodipodi:cy="75.38353"
         sodipodi:r1="8.5502825"
         sodipodi:r2="7.4047613"
         sodipodi:arg1="0.46364761"
         sodipodi:arg2="0.98724638"
         inkscape:rounded="0"
         inkscape:randomized="0"
         d="m 410.23937,79.207332 -7.13531,4.711119 -7.64761,-3.823802 -0.51229,-8.534922 7.13531,-4.711119 7.64761,3.823803 z"
         transform="matrix(0.22141131,0.01239142,-0.01312486,0.2090386,45.860425,12.574571)" />
      <path
         sodipodi:type="star"
         style="fill:currentColor;stroke:currentColor;stroke-width:15;stroke-opacity:1"
         id="path952"
         inkscape:flatsided="true"
         sodipodi:sides="6"
         sodipodi:cx="402.59177"
         sodipodi:cy="75.38353"
         sodipodi:r1="8.5502825"
         sodipodi:r2="7.4047613"
         sodipodi:arg1="0.46364761"
         sodipodi:arg2="0.98724638"
         inkscape:rounded="0"
         inkscape:randomized="0"
         d="m 410.23937,79.207332 -7.13531,4.711119 -7.64761,-3.823802 -0.51229,-8.534922 7.13531,-4.711119 7.64761,3.823803 z"
         transform="matrix(0.22141131,0.01239142,-0.01312486,0.2090386,-5.5924791,12.574571)" />
      <path
         sodipodi:type="star"
         style="fill:currentColor;stroke:currentColor;stroke-width:15;stroke-opacity:1"
         id="path953"
         inkscape:flatsided="true"
         sodipodi:sides="6"
         sodipodi:cx="402.59177"
         sodipodi:cy="75.38353"
         sodipodi:r1="8.5502825"
         sodipodi:r2="7.4047613"
         sodipodi:arg1="0.46364761"
         sodipodi:arg2="0.98724638"
         inkscape:rounded="0"
         inkscape:randomized="0"
         d="m 410.23937,79.207332 -7.13531,4.711119 -7.64761,-3.823802 -0.51229,-8.534922 7.13531,-4.711119 7.64761,3.823803 z"
         transform="matrix(0.22141131,0.01239142,-0.01312486,0.2090386,-31.02987,12.57457)" />
      <path
         sodipodi:type="star"
         style="fill:currentColor;stroke:currentColor;stroke-width:15;stroke-opacity:1"
         id="path954"
         inkscape:flatsided="true"
         sodipodi:sides="6"
         sodipodi:cx="402.59177"
         sodipodi:cy="75.38353"
         sodipodi:r1="8.5502825"
         sodipodi:r2="7.4047613"
         sodipodi:arg1="0.46364761"
         sodipodi:arg2="0.98724638"
         inkscape:rounded="0"
         inkscape:randomized="0"
         d="m 410.23937,79.207332 -7.13531,4.711119 -7.64761,-3.823802 -0.51229,-8.534922 7.13531,-4.711119 7.64761,3.823803 z"
         transform="matrix(0.22141131,0.01239142,-0.01312486,0.2090386,-43.893094,20.090163)" />
      <path
         sodipodi:type="star"
         style="fill:currentColor;stroke:currentColor;stroke-width:15;stroke-opacity:1"
         id="path956"
         inkscape:flatsided="true"
         sodipodi:sides="6"
         sodipodi:cx="402.59177"
         sodipodi:cy="75.38353"
         sodipodi:r1="8.5502825"
         sodipodi:r2="7.4047613"
         sodipodi:arg1="0.46364761"
         sodipodi:arg2="0.98724638"
         inkscape:rounded="0"
         inkscape:randomized="0"
         d="m 410.23937,79.207332 -7.13531,4.711119 -7.64761,-3.823802 -0.51229,-8.534922 7.13531,-4.711119 7.64761,3.823803 z"
         transform="matrix(0.22141131,0.01239142,-0.01312486,0.2090386,7.4152787,20.090163)" />
      <path
         sodipodi:type="star"
         style="fill:currentColor;stroke:currentColor;stroke-width:15;stroke-opacity:1"
         id="path957"
         inkscape:flatsided="true"
         sodipodi:sides="6"
         sodipodi:cx="402.59177"
         sodipodi:cy="75.38353"
         sodipodi:r1="8.5502825"
         sodipodi:r2="7.4047613"
         sodipodi:arg1="0.46364761"
         sodipodi:arg2="0.98724638"
         inkscape:rounded="0"
         inkscape:randomized="0"
         d="m 410.23937,79.207332 -7.13531,4.711119 -7.64761,-3.823802 -0.51229,-8.534922 7.13531,-4.711119 7.64761,3.823803 z"
         transform="matrix(0.22141131,0.01239142,-0.01312486,0.2090386,84.30557,20.090163)" />
      <path
         sodipodi:type="star"
         style="fill:currentColor;stroke:currentColor;stroke-width:15;stroke-opacity:1"
         id="path958"
         inkscape:flatsided="true"
         sodipodi:sides="6"
         sodipodi:cx="402.59177"
         sodipodi:cy="75.38353"
         sodipodi:r1="8.5502825"
         sodipodi:r2="7.4047613"
         sodipodi:arg1="0.46364761"
         sodipodi:arg2="0.98724638"
         inkscape:rounded="0"
         inkscape:randomized="0"
         d="m 410.23937,79.207332 -7.13531,4.711119 -7.64761,-3.823802 -0.51229,-8.534922 7.13531,-4.711119 7.64761,3.823803 z"
         transform="matrix(0.22141131,0.01239142,-0.01312486,0.2090386,58.723649,33.848496)" />
      <path
         sodipodi:type="star"
         style="fill:currentColor;stroke:currentColor;stroke-width:15;stroke-opacity:1"
         id="path959"
         inkscape:flatsided="true"
         sodipodi:sides="6"
         sodipodi:cx="402.59177"
         sodipodi:cy="75.38353"
         sodipodi:r1="8.5502825"
         sodipodi:r2="7.4047613"
         sodipodi:arg1="0.46364761"
         sodipodi:arg2="0.98724638"
         inkscape:rounded="0"
         inkscape:randomized="0"
         d="m 410.23937,79.207332 -7.13531,4.711119 -7.64761,-3.823802 -0.51229,-8.534922 7.13531,-4.711119 7.64761,3.823803 z"
         transform="matrix(0.22141131,0.01239142,-0.01312486,0.2090386,32.997198,33.848496)" />
      <path
         sodipodi:type="star"
         style="fill:currentColor;stroke:currentColor;stroke-width:15;stroke-opacity:1"
         id="path961"
         inkscape:flatsided="true"
         sodipodi:sides="6"
         sodipodi:cx="402.59177"
         sodipodi:cy="75.38353"
         sodipodi:r1="8.5502825"
         sodipodi:r2="7.4047613"
         sodipodi:arg1="0.46364761"
         sodipodi:arg2="0.98724638"
         inkscape:rounded="0"
         inkscape:randomized="0"
         d="m 410.23937,79.207332 -7.13531,4.711119 -7.64761,-3.823802 -0.51229,-8.534922 7.13531,-4.711119 7.64761,3.823803 z"
         transform="matrix(0.22141131,0.01239142,-0.01312486,0.2090386,-18.311172,33.848496)" />
      <path
         sodipodi:type="star"
         style="fill:currentColor;stroke:currentColor;stroke-width:15;stroke-opacity:1"
         id="path962"
         inkscape:flatsided="true"
         sodipodi:sides="6"
         sodipodi:cx="402.59177"
         sodipodi:cy="75.38353"
         sodipodi:r1="8.5502825"
         sodipodi:r2="7.4047613"
         sodipodi:arg1="0.46364761"
         sodipodi:arg2="0.98724638"
         inkscape:rounded="0"
         inkscape:randomized="0"
         d="m 410.23937,79.207332 -7.13531,4.711119 -7.64761,-3.823802 -0.51229,-8.534922 7.13531,-4.711119 7.64761,3.823803 z"
         transform="matrix(0.22141131,0.01239142,-0.01312486,0.2090386,7.4152787,33.848496)" />
      <path
         sodipodi:type="star"
         style="fill:currentColor;stroke:currentColor;stroke-width:15;stroke-opacity:1"
         id="path963"
         inkscape:flatsided="true"
         sodipodi:sides="6"
         sodipodi:cx="402.59177"
         sodipodi:cy="75.38353"
         sodipodi:r1="8.5502825"
         sodipodi:r2="7.4047613"
         sodipodi:arg1="0.46364761"
         sodipodi:arg2="0.98724638"
         inkscape:rounded="0"
         inkscape:randomized="0"
         d="m 410.23937,79.207332 -7.13531,4.711119 -7.64761,-3.823802 -0.51229,-8.534922 7.13531,-4.711119 7.64761,3.823803 z"
         transform="matrix(0.22141131,0.01239142,-0.01312486,0.2090386,84.30557,33.848496)" />
      <path
         sodipodi:type="star"
         style="fill:currentColor;stroke:currentColor;stroke-width:15;stroke-opacity:1"
         id="path964"
         inkscape:flatsided="true"
         sodipodi:sides="6"
         sodipodi:cx="402.59177"
         sodipodi:cy="75.38353"
         sodipodi:r1="8.5502825"
         sodipodi:r2="7.4047613"
         sodipodi:arg1="0.46364761"
         sodipodi:arg2="0.98724638"
         inkscape:rounded="0"
         inkscape:randomized="0"
         d="m 410.23937,79.207332 -7.13531,4.711119 -7.64761,-3.823802 -0.51229,-8.534922 7.13531,-4.711119 7.64761,3.823803 z"
         transform="matrix(0.22141131,0.01239142,-0.01312486,0.2090386,71.370078,41.14957)" />
      <path
         sodipodi:type="star"
         style="fill:currentColor;stroke:currentColor;stroke-width:15;stroke-opacity:1"
         id="path965"
         inkscape:flatsided="true"
         sodipodi:sides="6"
         sodipodi:cx="402.59177"
         sodipodi:cy="75.38353"
         sodipodi:r1="8.5502825"
         sodipodi:r2="7.4047613"
         sodipodi:arg1="0.46364761"
         sodipodi:arg2="0.98724638"
         inkscape:rounded="0"
         inkscape:randomized="0"
         d="m 410.23937,79.207332 -7.13531,4.711119 -7.64761,-3.823802 -0.51229,-8.534922 7.13531,-4.711119 7.64761,3.823803 z"
         transform="matrix(0.22141131,0.01239142,-0.01312486,0.2090386,45.860425,41.14957)" />
      <path
         sodipodi:type="star"
         style="fill:currentColor;stroke:currentColor;stroke-width:15;stroke-opacity:1"
         id="path966"
         inkscape:flatsided="true"
         sodipodi:sides="6"
         sodipodi:cx="402.59177"
         sodipodi:cy="75.38353"
         sodipodi:r1="8.5502825"
         sodipodi:r2="7.4047613"
         sodipodi:arg1="0.46364761"
         sodipodi:arg2="0.98724638"
         inkscape:rounded="0"
         inkscape:randomized="0"
         d="m 410.23937,79.207332 -7.13531,4.711119 -7.64761,-3.823802 -0.51229,-8.534922 7.13531,-4.711119 7.64761,3.823803 z"
         transform="matrix(0.22141131,0.01239142,-0.01312486,0.2090386,-5.5924791,41.14957)" />
      <path
         sodipodi:type="star"
         style="fill:currentColor;stroke:currentColor;stroke-width:15;stroke-opacity:1"
         id="path967"
         inkscape:flatsided="true"
         sodipodi:sides="6"
         sodipodi:cx="402.59177"
         sodipodi:cy="75.38353"
         sodipodi:r1="8.5502825"
         sodipodi:r2="7.4047613"
         sodipodi:arg1="0.46364761"
         sodipodi:arg2="0.98724638"
         inkscape:rounded="0"
         inkscape:randomized="0"
         d="m 410.23937,79.207332 -7.13531,4.711119 -7.64761,-3.823802 -0.51229,-8.534922 7.13531,-4.711119 7.64761,3.823803 z"
         transform="matrix(0.22141131,0.01239142,-0.01312486,0.2090386,-31.02987,41.14957)" />
      <path
         sodipodi:type="star"
         style="fill:currentColor;stroke:currentColor;stroke-width:15;stroke-opacity:1"
         id="path968"
         inkscape:flatsided="true"
         sodipodi:sides="6"
         sodipodi:cx="402.59177"
         sodipodi:cy="75.38353"
         sodipodi:r1="8.5502825"
         sodipodi:r2="7.4047613"
         sodipodi:arg1="0.46364761"
         sodipodi:arg2="0.98724638"
         inkscape:rounded="0"
         inkscape:randomized="0"
         d="m 410.23937,79.207332 -7.13531,4.711119 -7.64761,-3.823802 -0.51229,-8.534922 7.13531,-4.711119 7.64761,3.823803 z"
         transform="matrix(0.22141131,0.01239142,-0.01312486,0.2090386,20.278503,39.601797)" />
      <path
         sodipodi:type="star"
         style="fill:currentColor;stroke:currentColor;stroke-width:15;stroke-opacity:1"
         id="path969"
         inkscape:flatsided="true"
         sodipodi:sides="6"
         sodipodi:cx="402.59177"
         sodipodi:cy="75.38353"
         sodipodi:r1="8.5502825"
         sodipodi:r2="7.4047613"
         sodipodi:arg1="0.46364761"
         sodipodi:arg2="0.98724638"
         inkscape:rounded="0"
         inkscape:randomized="0"
         d="m 410.23937,79.207332 -7.13531,4.711119 -7.64761,-3.823802 -0.51229,-8.534922 7.13531,-4.711119 7.64761,3.823803 z"
         transform="matrix(0.22141131,0.01239142,-0.01312486,0.2090386,-31.02987,55.644697)"
         inkscape:transform-center-x="-131.64805"
         inkscape:transform-center-y="-54.079491" />
      <path
         sodipodi:type="star"
         style="fill:currentColor;stroke:currentColor;stroke-width:15;stroke-opacity:1"
         id="path970"
         inkscape:flatsided="true"
         sodipodi:sides="6"
         sodipodi:cx="402.59177"
         sodipodi:cy="75.38353"
         sodipodi:r1="8.5502825"
         sodipodi:r2="7.4047613"
         sodipodi:arg1="0.46364761"
         sodipodi:arg2="0.98724638"
         inkscape:rounded="0"
         inkscape:randomized="0"
         d="m 410.23937,79.207332 -7.13531,4.711119 -7.64761,-3.823802 -0.51229,-8.534922 7.13531,-4.711119 7.64761,3.823803 z"
         transform="matrix(0.22141131,0.01239142,-0.01312486,0.2090386,-44.037628,63.015758)"
         inkscape:transform-center-x="-131.64805"
         inkscape:transform-center-y="-54.079491" />
      <path
         sodipodi:type="star"
         style="fill:currentColor;stroke:currentColor;stroke-width:15;stroke-opacity:1"
         id="path971"
         inkscape:flatsided="true"
         sodipodi:sides="6"
         sodipodi:cx="402.59177"
         sodipodi:cy="75.38353"
         sodipodi:r1="8.5502825"
         sodipodi:r2="7.4047613"
         sodipodi:arg1="0.46364761"
         sodipodi:arg2="0.98724638"
         inkscape:rounded="0"
         inkscape:randomized="0"
         d="m 410.23937,79.207332 -7.13531,4.711119 -7.64761,-3.823802 -0.51229,-8.534922 7.13531,-4.711119 7.64761,3.823803 z"
         transform="matrix(0.22141131,0.01239142,-0.01312486,0.2090386,-5.5924818,55.644697)"
         inkscape:transform-center-x="-131.64805"
         inkscape:transform-center-y="-54.079491" />
      <path
         sodipodi:type="star"
         style="fill:currentColor;stroke:currentColor;stroke-width:15;stroke-opacity:1"
         id="path972"
         inkscape:flatsided="true"
         sodipodi:sides="6"
         sodipodi:cx="402.59177"
         sodipodi:cy="75.38353"
         sodipodi:r1="8.5502825"
         sodipodi:r2="7.4047613"
         sodipodi:arg1="0.46364761"
         sodipodi:arg2="0.98724638"
         inkscape:rounded="0"
         inkscape:randomized="0"
         d="m 410.23937,79.207332 -7.13531,4.711119 -7.64761,-3.823802 -0.51229,-8.534922 7.13531,-4.711119 7.64761,3.823803 z"
         transform="matrix(0.22141131,0.01239142,-0.01312486,0.2090386,45.426828,55.066574)"
         inkscape:transform-center-x="-131.64805"
         inkscape:transform-center-y="-54.079491" />
      <path
         sodipodi:type="star"
         style="fill:currentColor;stroke:currentColor;stroke-width:15;stroke-opacity:1"
         id="path973"
         inkscape:flatsided="true"
         sodipodi:sides="6"
         sodipodi:cx="402.59177"
         sodipodi:cy="75.38353"
         sodipodi:r1="8.5502825"
         sodipodi:r2="7.4047613"
         sodipodi:arg1="0.46364761"
         sodipodi:arg2="0.98724638"
         inkscape:rounded="0"
         inkscape:randomized="0"
         d="m 410.23937,79.207332 -7.13531,4.711119 -7.64761,-3.823802 -0.51229,-8.534922 7.13531,-4.711119 7.64761,3.823803 z"
         transform="matrix(0.22141131,0.01239142,-0.01312486,0.2090386,71.370078,55.644697)"
         inkscape:transform-center-x="-131.64805"
         inkscape:transform-center-y="-54.079491" />
      <path
         sodipodi:type="star"
         style="fill:currentColor;stroke:currentColor;stroke-width:15;stroke-opacity:1"
         id="path974"
         inkscape:flatsided="true"
         sodipodi:sides="6"
         sodipodi:cx="402.59177"
         sodipodi:cy="75.38353"
         sodipodi:r1="8.5502825"
         sodipodi:r2="7.4047613"
         sodipodi:arg1="0.46364761"
         sodipodi:arg2="0.98724638"
         inkscape:rounded="0"
         inkscape:randomized="0"
         d="m 410.23937,79.207332 -7.13531,4.711119 -7.64761,-3.823802 -0.51229,-8.534922 7.13531,-4.711119 7.64761,3.823803 z"
         transform="matrix(0.22141131,0.01239142,-0.01312486,0.2090386,84.161036,63.015758)"
         inkscape:transform-center-x="-131.64805"
         inkscape:transform-center-y="-54.079491" />
      <path
         sodipodi:type="star"
         style="fill:currentColor;stroke:currentColor;stroke-width:15;stroke-opacity:1"
         id="path975"
         inkscape:flatsided="true"
         sodipodi:sides="6"
         sodipodi:cx="402.59177"
         sodipodi:cy="75.38353"
         sodipodi:r1="8.5502825"
         sodipodi:r2="7.4047613"
         sodipodi:arg1="0.46364761"
         sodipodi:arg2="0.98724638"
         inkscape:rounded="0"
         inkscape:randomized="0"
         d="m 410.23937,79.207332 -7.13531,4.711119 -7.64761,-3.823802 -0.51229,-8.534922 7.13531,-4.711119 7.64761,3.823803 z"
         transform="matrix(0.26569357,0.01486971,-0.01574983,0.25084632,72.326804,104.53619)"
         inkscape:transform-center-x="-157.97768"
         inkscape:transform-center-y="-64.895391" />
      <path
         sodipodi:type="star"
         style="fill:currentColor;stroke:currentColor;stroke-width:15;stroke-opacity:1"
         id="path976"
         inkscape:flatsided="true"
         sodipodi:sides="6"
         sodipodi:cx="402.59177"
         sodipodi:cy="75.38353"
         sodipodi:r1="8.5502825"
         sodipodi:r2="7.4047613"
         sodipodi:arg1="0.46364761"
         sodipodi:arg2="0.98724638"
         inkscape:rounded="0"
         inkscape:randomized="0"
         d="m 410.23937,79.207332 -7.13531,4.711119 -7.64761,-3.823802 -0.51229,-8.534922 7.13531,-4.711119 7.64761,3.823803 z"
         transform="matrix(0.26569357,0.01486971,-0.01574983,0.25084632,58.316968,112.4873)"
         inkscape:transform-center-x="-157.97768"
         inkscape:transform-center-y="-64.895391" />
      <path
         sodipodi:type="star"
         style="fill:currentColor;stroke:currentColor;stroke-width:15;stroke-opacity:1"
         id="path977"
         inkscape:flatsided="true"
         sodipodi:sides="6"
         sodipodi:cx="402.59177"
         sodipodi:cy="75.38353"
         sodipodi:r1="8.5502825"
         sodipodi:r2="7.4047613"
         sodipodi:arg1="0.46364761"
         sodipodi:arg2="0.98724638"
         inkscape:rounded="0"
         inkscape:randomized="0"
         d="m 410.23937,79.207332 -7.13531,4.711119 -7.64761,-3.823802 -0.51229,-8.534922 7.13531,-4.711119 7.64761,3.823803 z"
         transform="matrix(0.26569357,0.01486971,-0.01574983,0.25084632,44.149536,104.68076)"
         inkscape:transform-center-x="-157.97768"
         inkscape:transform-center-y="-64.895391" />
      <path
         sodipodi:type="star"
         style="fill:currentColor;stroke:currentColor;stroke-width:15;stroke-opacity:1"
         id="path978"
         inkscape:flatsided="true"
         sodipodi:sides="6"
         sodipodi:cx="402.59177"
         sodipodi:cy="75.38353"
         sodipodi:r1="8.5502825"
         sodipodi:r2="7.4047613"
         sodipodi:arg1="0.46364761"
         sodipodi:arg2="0.98724638"
         inkscape:rounded="0"
         inkscape:randomized="0"
         d="m 410.23937,79.207332 -7.13531,4.711119 -7.64761,-3.823802 -0.51229,-8.534922 7.13531,-4.711119 7.64761,3.823803 z"
         transform="matrix(0.26569357,0.01486971,-0.01574983,0.25084632,-39.603462,104.53619)"
         inkscape:transform-center-x="-157.97768"
         inkscape:transform-center-y="-64.895391" />
      <path
         sodipodi:type="star"
         style="fill:currentColor;stroke:currentColor;stroke-width:15;stroke-opacity:1"
         id="path979"
         inkscape:flatsided="true"
         sodipodi:sides="6"
         sodipodi:cx="402.59177"
         sodipodi:cy="75.38353"
         sodipodi:r1="8.5502825"
         sodipodi:r2="7.4047613"
         sodipodi:arg1="0.46364761"
         sodipodi:arg2="0.98724638"
         inkscape:rounded="0"
         inkscape:randomized="0"
         d="m 410.23937,79.207332 -7.13531,4.711119 -7.64761,-3.823802 -0.51229,-8.534922 7.13531,-4.711119 7.64761,3.823803 z"
         transform="matrix(0.26569357,0.01486971,-0.01574983,0.25084632,-53.337197,112.4873)"
         inkscape:transform-center-x="-157.97768"
         inkscape:transform-center-y="-64.895391" />
      <path
         sodipodi:type="star"
         style="fill:currentColor;stroke:currentColor;stroke-width:15;stroke-opacity:1"
         id="path980"
         inkscape:flatsided="true"
         sodipodi:sides="6"
         sodipodi:cx="402.59177"
         sodipodi:cy="75.38353"
         sodipodi:r1="8.5502825"
         sodipodi:r2="7.4047613"
         sodipodi:arg1="0.46364761"
         sodipodi:arg2="0.98724638"
         inkscape:rounded="0"
         inkscape:randomized="0"
         d="m 410.23937,79.207332 -7.13531,4.711119 -7.64761,-3.823802 -0.51229,-8.534922 7.13531,-4.711119 7.64761,3.823803 z"
         transform="matrix(0.26569357,0.01486971,-0.01574983,0.25084632,-67.289781,104.68076)"
         inkscape:transform-center-x="-157.97768"
         inkscape:transform-center-y="-64.895391" />
      <path
         sodipodi:type="star"
         style="fill:currentColor;stroke:currentColor;stroke-width:15;stroke-opacity:1"
         id="path981"
         inkscape:flatsided="true"
         sodipodi:sides="6"
         sodipodi:cx="402.59177"
         sodipodi:cy="75.38353"
         sodipodi:r1="8.5502825"
         sodipodi:r2="7.4047613"
         sodipodi:arg1="0.46364761"
         sodipodi:arg2="0.98724638"
         inkscape:rounded="0"
         inkscape:randomized="0"
         d="m 410.23937,79.207332 -7.13531,4.711119 -7.64761,-3.823802 -0.51229,-8.534922 7.13531,-4.711119 7.64761,3.823803 z"
         transform="matrix(0.22141131,0.01239142,-0.01312486,0.2090386,33.569726,78.05251)"
         inkscape:transform-center-x="-131.64805"
         inkscape:transform-center-y="-54.079491" />
      <path
         sodipodi:type="star"
         style="fill:currentColor;stroke:currentColor;stroke-width:15;stroke-opacity:1"
         id="path982"
         inkscape:flatsided="true"
         sodipodi:sides="6"
         sodipodi:cx="402.59177"
         sodipodi:cy="75.38353"
         sodipodi:r1="8.5502825"
         sodipodi:r2="7.4047613"
         sodipodi:arg1="0.46364761"
         sodipodi:arg2="0.98724638"
         inkscape:rounded="0"
         inkscape:randomized="0"
         d="m 410.23937,79.207332 -7.13531,4.711119 -7.64761,-3.823802 -0.51229,-8.534922 7.13531,-4.711119 7.64761,3.823803 z"
         transform="matrix(0.22141131,0.01239142,-0.01312486,0.2090386,20.416975,86.437317)"
         inkscape:transform-center-x="-131.64805"
         inkscape:transform-center-y="-54.079491" />
      <path
         sodipodi:type="star"
         style="fill:currentColor;stroke:currentColor;stroke-width:15;stroke-opacity:1"
         id="path983"
         inkscape:flatsided="true"
         sodipodi:sides="6"
         sodipodi:cx="402.59177"
         sodipodi:cy="75.38353"
         sodipodi:r1="8.5502825"
         sodipodi:r2="7.4047613"
         sodipodi:arg1="0.46364761"
         sodipodi:arg2="0.98724638"
         inkscape:rounded="0"
         inkscape:randomized="0"
         d="m 410.23937,79.207332 -7.13531,4.711119 -7.64761,-3.823802 -0.51229,-8.534922 7.13531,-4.711119 7.64761,3.823803 z"
         transform="matrix(0.22141131,0.01239142,-0.01312486,0.2090386,7.9843313,78.486207)"
         inkscape:transform-center-x="-131.64805"
         inkscape:transform-center-y="-54.079491" />
      <path
         sodipodi:type="star"
         style="fill:currentColor;stroke:currentColor;stroke-width:15;stroke-opacity:1"
         id="path985"
         inkscape:flatsided="true"
         sodipodi:sides="6"
         sodipodi:cx="402.59177"
         sodipodi:cy="75.38353"
         sodipodi:r1="8.5502825"
         sodipodi:r2="7.4047613"
         sodipodi:arg1="0.46364761"
         sodipodi:arg2="0.98724638"
         inkscape:rounded="0"
         inkscape:randomized="0"
         d="m 410.23937,79.207332 -7.13531,4.711119 -7.64761,-3.823802 -0.51229,-8.534922 7.13531,-4.711119 7.64761,3.823803 z"
         transform="matrix(0.22141131,0.01239142,-0.01312486,0.2090386,76.074743,89.111778)"
         inkscape:transform-center-x="-131.64805"
         inkscape:transform-center-y="-54.079491" />
      <path
         sodipodi:type="star"
         style="fill:currentColor;stroke:currentColor;stroke-width:15;stroke-opacity:1"
         id="path986"
         inkscape:flatsided="true"
         sodipodi:sides="6"
         sodipodi:cx="402.59177"
         sodipodi:cy="75.38353"
         sodipodi:r1="8.5502825"
         sodipodi:r2="7.4047613"
         sodipodi:arg1="0.46364761"
         sodipodi:arg2="0.98724638"
         inkscape:rounded="0"
         inkscape:randomized="0"
         d="m 410.23937,79.207332 -7.13531,4.711119 -7.64761,-3.823802 -0.51229,-8.534922 7.13531,-4.711119 7.64761,3.823803 z"
         transform="matrix(0.22141131,0.01239142,-0.01312486,0.2090386,-35.240793,89.111778)"
         inkscape:transform-center-x="-131.64805"
         inkscape:transform-center-y="-54.079491" />
      <circle
         style="fill:#ffffff;fill-opacity:1;stroke:currentColor;stroke-width:1.67436;stroke-dasharray:none;stroke-opacity:1"
         id="path987"
         cx="178.10558"
         cy="70.30204"
         r="2.4701133" />
      <circle
         style="fill:#ffffff;fill-opacity:1;stroke:currentColor;stroke-width:1.67436;stroke-dasharray:none;stroke-opacity:1"
         id="circle987"
         cx="38.488991"
         cy="70.157471"
         r="2.4701133" />
      <circle
         style="fill:#ffffff;fill-opacity:1;stroke:currentColor;stroke-width:1.67436;stroke-dasharray:none;stroke-opacity:1"
         id="circle988"
         cx="52.556187"
         cy="90.235817"
         r="2.4701133" />
      <circle
         style="fill:#ffffff;fill-opacity:1;stroke:currentColor;stroke-width:1.67436;stroke-dasharray:none;stroke-opacity:1"
         id="circle989"
         cx="59.929031"
         cy="100.73311"
         r="2.4701133" />
      <circle
         style="fill:#ffffff;fill-opacity:1;stroke:currentColor;stroke-width:1.67436;stroke-dasharray:none;stroke-opacity:1"
         id="circle990"
         cx="156.64345"
         cy="100.73311"
         r="2.4701133" />
      <circle
         style="fill:#ffffff;fill-opacity:1;stroke:currentColor;stroke-width:1.67436;stroke-dasharray:none;stroke-opacity:1"
         id="circle992"
         cx="163.76431"
         cy="90.235817"
         r="2.4701133" />
      <path
         sodipodi:type="star"
         style="fill:none;fill-opacity:1;stroke:currentColor;stroke-width:5.36199;stroke-dasharray:none;stroke-opacity:1"
         id="path992"
         inkscape:flatsided="true"
         sodipodi:sides="6"
         sodipodi:cx="688.9975"
         sodipodi:cy="42.618404"
         sodipodi:r1="54.11742"
         sodipodi:r2="46.867062"
         sodipodi:arg1="1.5405026"
         sodipodi:arg2="2.0641013"
         inkscape:rounded="0"
         inkscape:randomized="0"
         d="m 690.63667,96.710994 -47.66515,-25.626734 -1.63916,-54.09259 46.02597,-28.465856 47.66514,25.626735 1.63917,54.09259 z"
         transform="matrix(0.27139339,0,0,0.27139339,-117.38522,13.930117)" />
      <path
         sodipodi:type="star"
         style="fill:none;fill-opacity:1;stroke:currentColor;stroke-width:5.36199;stroke-dasharray:none;stroke-opacity:1"
         id="path994"
         inkscape:flatsided="true"
         sodipodi:sides="6"
         sodipodi:cx="688.9975"
         sodipodi:cy="42.618404"
         sodipodi:r1="54.11742"
         sodipodi:r2="46.867062"
         sodipodi:arg1="1.5405026"
         sodipodi:arg2="2.0641013"
         inkscape:rounded="0"
         inkscape:randomized="0"
         d="m 690.63667,96.710994 -47.66515,-25.626734 -1.63916,-54.09259 46.02597,-28.465856 47.66514,25.626735 1.63917,54.09259 z"
         transform="matrix(0.27139339,0,0,0.27139339,-130.08522,36.155118)" />
      <path
         sodipodi:type="star"
         style="fill:none;fill-opacity:1;stroke:currentColor;stroke-width:5.36199;stroke-dasharray:none;stroke-opacity:1"
         id="path995"
         inkscape:flatsided="true"
         sodipodi:sides="6"
         sodipodi:cx="688.9975"
         sodipodi:cy="42.618404"
         sodipodi:r1="54.11742"
         sodipodi:r2="46.867062"
         sodipodi:arg1="1.5405026"
         sodipodi:arg2="2.0641013"
         inkscape:rounded="0"
         inkscape:randomized="0"
         d="m 690.63667,96.710994 -47.66515,-25.626734 -1.63916,-54.09259 46.02597,-28.465856 47.66514,25.626735 1.63917,54.09259 z"
         transform="matrix(0.27139339,0,0,0.27139339,-52.82689,36.155118)" />
      <path
         sodipodi:type="star"
         style="fill:none;fill-opacity:1;stroke:currentColor;stroke-width:5.36199;stroke-dasharray:none;stroke-opacity:1"
         id="path996"
         inkscape:flatsided="true"
         sodipodi:sides="6"
         sodipodi:cx="688.9975"
         sodipodi:cy="42.618404"
         sodipodi:r1="54.11742"
         sodipodi:r2="46.867062"
         sodipodi:arg1="1.5405026"
         sodipodi:arg2="2.0641013"
         inkscape:rounded="0"
         inkscape:randomized="0"
         d="m 690.63667,96.710994 -47.66515,-25.626734 -1.63916,-54.09259 46.02597,-28.465856 47.66514,25.626735 1.63917,54.09259 z"
         transform="matrix(0.27139339,0,0,0.27139339,-27.42689,36.155118)" />
      <path
         sodipodi:type="star"
         style="fill:none;fill-opacity:1;stroke:currentColor;stroke-width:5.36199;stroke-dasharray:none;stroke-opacity:1"
         id="path997"
         inkscape:flatsided="true"
         sodipodi:sides="6"
         sodipodi:cx="688.9975"
         sodipodi:cy="42.618404"
         sodipodi:r1="54.11742"
         sodipodi:r2="46.867062"
         sodipodi:arg1="1.5405026"
         sodipodi:arg2="2.0641013"
         inkscape:rounded="0"
         inkscape:randomized="0"
         d="m 690.63667,96.710994 -47.66515,-25.626734 -1.63916,-54.09259 46.02597,-28.465856 47.66514,25.626735 1.63917,54.09259 z"
         transform="matrix(0.27139339,0,0,0.27139339,-40.12689,13.930117)" />
      <path
         style="baseline-shift:baseline;display:inline;overflow:visible;fill:none;stroke:currentColor;stroke-width:1.45521;stroke-dasharray:none;stroke-opacity:1;enable-background:accumulate;stop-color:#000000"
         d="m 95.062761,54.426362 -13.205514,8.167244 0.470168,15.52031 c 0,0 3.023089,3.304806 7.125382,10.042668 4.102293,6.737862 6.103984,12.182436 6.103984,12.182436 l 13.676209,7.35307 13.20552,-8.167779 c 0,0 1.2082,-4.763789 5.78909,-11.792518 4.58089,-7.028729 6.91074,-10.432587 6.91074,-10.432587 l -0.47016,-15.51978 -13.67622,-7.353064 -12.24609,7.574101 -0.007,-0.221037 z"
         id="path998"
         sodipodi:nodetypes="ccczccczcccccc" />
    </g>
  </g>
</svg>
