<?xml version="1.0" encoding="UTF-8" standalone="no"?>
<svg
   width="1920"
   height="1080"
   viewBox="0 0 1920 1080"
   version="1.1"
   id="svg282"
   sodipodi:docname="dft_logo_spd_triptych.svg"
   inkscape:version="1.4.3 (0d15f75042, 2025-12-25)"
   xmlns:inkscape="http://www.inkscape.org/namespaces/inkscape"
   xmlns:sodipodi="http://sodipodi.sourceforge.net/DTD/sodipodi-0.dtd"
   xmlns="http://www.w3.org/2000/svg"
   xmlns:svg="http://www.w3.org/2000/svg">
  <defs
     id="defs282" />
  <sodipodi:namedview
     id="namedview282"
     pagecolor="#ffffff"
     bordercolor="#000000"
     borderopacity="0.25"
     inkscape:showpageshadow="2"
     inkscape:pageopacity="0.0"
     inkscape:pagecheckerboard="0"
     inkscape:deskcolor="#d1d1d1"
     inkscape:zoom="0.63958333"
     inkscape:cx="960"
     inkscape:cy="539.41368"
     inkscape:window-width="1920"
     inkscape:window-height="1168"
     inkscape:window-x="0"
     inkscape:window-y="0"
     inkscape:window-maximized="1"
     inkscape:current-layer="svg282" />
  <style
     id="style1">
  .nd  { fill: #263238; stroke: #546e7a; stroke-width: 1.3; }
  .ndb { fill: #37474f; stroke: #78909c; stroke-width: 1.4; }
  .ed  { stroke: #546e7a; stroke-width: 1.2; fill: none; opacity: 0.85; }
  .ef  { stroke: #455a64; stroke-width: 0.9; fill: none; opacity: 0.5; }
  .lp  { fill: none; stroke: #607d8b; stroke-width: 1.45; }
  .hr  { fill: none; stroke: #546e7a; stroke-width: 1.3; opacity: 0.65; }
  .nuc { fill: #546e7a; stroke: #90a4ae; stroke-width: 2.0; }
  .lbl { font-family: system-ui, sans-serif; font-size: 13px; font-weight: 500; fill: #546e7a; letter-spacing: 3px; }
  .lbs { font-family: system-ui, sans-serif; font-size: 10px; font-weight: 400; fill: #78909c; letter-spacing: 1.5px; }
</style>
  <rect
     style="fill:#e6e6e6;fill-opacity:1;stroke-width:0.992591"
     id="rect1"
     width="1920"
     height="1080"
     x="0"
     y="0" />
  <!-- ══════════════════════════════════════════════
     S ORBITAL  —  sphere mesh, center x=113
     ══════════════════════════════════════════════ -->
  <!-- ══════════════════════════════════════════════
     Pₓ ORBITAL  —  two lobes along x-axis, center x=340
     ══════════════════════════════════════════════ -->
  <!-- ══════════════════════════════════════════════
     d_z² ORBITAL  —  two lobes + torus ring, center x=567
     ══════════════════════════════════════════════ -->
  <g
     transform="matrix(2.7265437,0,0,2.7265437,363.15959,546.31109)"
     id="g47">
    <circle
       class="lp"
       cx="0"
       cy="0"
       r="88"
       id="circle1" />
    <circle
       class="hr"
       cx="0"
       cy="0"
       r="62"
       id="circle2" />
    <circle
       class="hr"
       cx="0"
       cy="0"
       r="34"
       id="circle3" />
    <ellipse
       class="ef"
       cx="0"
       cy="0"
       rx="88"
       ry="22"
       id="ellipse3" />
    <ellipse
       class="ef"
       cx="0"
       cy="0"
       rx="62"
       ry="15"
       id="ellipse4" />
    <ellipse
       class="ef"
       cx="0"
       cy="0"
       rx="34"
       ry="9"
       id="ellipse5" />
    <ellipse
       class="ef"
       cx="0"
       cy="0"
       rx="22"
       ry="88"
       id="ellipse6" />
    <ellipse
       class="ef"
       cx="0"
       cy="0"
       rx="44"
       ry="88"
       transform="rotate(50)"
       id="ellipse7" />
    <ellipse
       class="ef"
       cx="0"
       cy="0"
       rx="44"
       ry="88"
       transform="rotate(-50)"
       id="ellipse8" />
    <!-- Radial spokes -->
    <line
       class="ed"
       x1="34"
       y1="0"
       x2="62"
       y2="0"
       id="line8" />
    <line
       class="ed"
       x1="62"
       y1="0"
       x2="88"
       y2="0"
       id="line9" />
    <line
       class="ed"
       x1="-34"
       y1="0"
       x2="-62"
       y2="0"
       id="line10" />
    <line
       class="ed"
       x1="-62"
       y1="0"
       x2="-88"
       y2="0"
       id="line11" />
    <line
       class="ed"
       x1="0"
       y1="34"
       x2="0"
       y2="62"
       id="line12" />
    <line
       class="ed"
       x1="0"
       y1="62"
       x2="0"
       y2="88"
       id="line13" />
    <line
       class="ed"
       x1="0"
       y1="-34"
       x2="0"
       y2="-62"
       id="line14" />
    <line
       class="ed"
       x1="0"
       y1="-62"
       x2="0"
       y2="-88"
       id="line15" />
    <line
       class="ef"
       x1="24"
       y1="24"
       x2="44"
       y2="44"
       id="line16" />
    <line
       class="ef"
       x1="44"
       y1="44"
       x2="62"
       y2="62"
       id="line17" />
    <line
       class="ef"
       x1="-24"
       y1="24"
       x2="-44"
       y2="44"
       id="line18" />
    <line
       class="ef"
       x1="-44"
       y1="44"
       x2="-62"
       y2="62"
       id="line19" />
    <line
       class="ef"
       x1="24"
       y1="-24"
       x2="44"
       y2="-44"
       id="line20" />
    <line
       class="ef"
       x1="44"
       y1="-44"
       x2="62"
       y2="-62"
       id="line21" />
    <line
       class="ef"
       x1="-24"
       y1="-24"
       x2="-44"
       y2="-44"
       id="line22" />
    <line
       class="ef"
       x1="-44"
       y1="-44"
       x2="-62"
       y2="-62"
       id="line23" />
    <!-- Outer ring nodes -->
    <circle
       class="nd"
       cx="88"
       cy="0"
       r="4.1999998"
       id="circle23" />
    <circle
       class="nd"
       cx="62"
       cy="62"
       r="4"
       id="circle24" />
    <circle
       class="nd"
       cx="0"
       cy="88"
       r="4.1999998"
       id="circle25" />
    <circle
       class="nd"
       cx="-62"
       cy="62"
       r="4"
       id="circle26" />
    <circle
       class="nd"
       cx="-88"
       cy="0"
       r="4.1999998"
       id="circle27" />
    <circle
       class="nd"
       cx="-62"
       cy="-62"
       r="4"
       id="circle28" />
    <circle
       class="nd"
       cx="0"
       cy="-88"
       r="4.1999998"
       id="circle29" />
    <circle
       class="nd"
       cx="62"
       cy="-62"
       r="4"
       id="circle30" />
    <!-- Mid ring nodes -->
    <circle
       class="nd"
       cx="62"
       cy="0"
       r="3.8"
       id="circle31" />
    <circle
       class="nd"
       cx="44"
       cy="44"
       r="3.5999999"
       id="circle32" />
    <circle
       class="nd"
       cx="0"
       cy="62"
       r="3.8"
       id="circle33" />
    <circle
       class="nd"
       cx="-44"
       cy="44"
       r="3.5999999"
       id="circle34" />
    <circle
       class="nd"
       cx="-62"
       cy="0"
       r="3.8"
       id="circle35" />
    <circle
       class="nd"
       cx="-44"
       cy="-44"
       r="3.5999999"
       id="circle36" />
    <circle
       class="nd"
       cx="0"
       cy="-62"
       r="3.8"
       id="circle37" />
    <circle
       class="nd"
       cx="44"
       cy="-44"
       r="3.5999999"
       id="circle38" />
    <!-- Inner ring nodes -->
    <circle
       class="nd"
       cx="34"
       cy="0"
       r="3.2"
       id="circle39" />
    <circle
       class="nd"
       cx="24"
       cy="24"
       r="3"
       id="circle40" />
    <circle
       class="nd"
       cx="0"
       cy="34"
       r="3.2"
       id="circle41" />
    <circle
       class="nd"
       cx="-24"
       cy="24"
       r="3"
       id="circle42" />
    <circle
       class="nd"
       cx="-34"
       cy="0"
       r="3.2"
       id="circle43" />
    <circle
       class="nd"
       cx="-24"
       cy="-24"
       r="3"
       id="circle44" />
    <circle
       class="nd"
       cx="0"
       cy="-34"
       r="3.2"
       id="circle45" />
    <circle
       class="nd"
       cx="24"
       cy="-24"
       r="3"
       id="circle46" />
    <!-- Nucleus -->
    <circle
       class="nuc"
       cx="0"
       cy="0"
       r="8"
       id="circle47" />
  </g>
  <g
     transform="matrix(2.7265437,0,0,2.7265437,982.08501,546.31109)"
     id="g154">
    <path
       class="lp"
       d="M 18,0 C 38,28 95,62 148,52 185,44 210,18 210,0 210,-18 185,-44 148,-52 95,-62 38,-28 18,0"
       id="path47" />
    <path
       class="lp"
       d="m -18,0 c -20,28 -77,62 -130,52 -37,-8 -62,-34 -62,-52 0,-18 25,-44 62,-52 53,-10 110,24 130,52"
       id="path48" />
    <!-- RIGHT LOBE -->
    <line
       class="ed"
       x1="198"
       y1="0"
       x2="178"
       y2="-18"
       id="line48" />
    <line
       class="ed"
       x1="198"
       y1="0"
       x2="178"
       y2="18"
       id="line49" />
    <line
       class="ef"
       x1="178"
       y1="-18"
       x2="178"
       y2="18"
       id="line50" />
    <line
       class="ed"
       x1="178"
       y1="-18"
       x2="152"
       y2="-36"
       id="line51" />
    <line
       class="ed"
       x1="178"
       y1="18"
       x2="152"
       y2="36"
       id="line52" />
    <line
       class="ef"
       x1="152"
       y1="-36"
       x2="152"
       y2="36"
       id="line53" />
    <line
       class="ef"
       x1="178"
       y1="-18"
       x2="155"
       y2="0"
       id="line54" />
    <line
       class="ef"
       x1="178"
       y1="18"
       x2="155"
       y2="0"
       id="line55" />
    <line
       class="ef"
       x1="152"
       y1="-36"
       x2="155"
       y2="0"
       id="line56" />
    <line
       class="ef"
       x1="152"
       y1="36"
       x2="155"
       y2="0"
       id="line57" />
    <line
       class="ed"
       x1="152"
       y1="-36"
       x2="120"
       y2="-50"
       id="line58" />
    <line
       class="ed"
       x1="152"
       y1="36"
       x2="120"
       y2="50"
       id="line59" />
    <line
       class="ef"
       x1="120"
       y1="-50"
       x2="120"
       y2="50"
       id="line60" />
    <line
       class="ef"
       x1="152"
       y1="-36"
       x2="125"
       y2="-18"
       id="line61" />
    <line
       class="ef"
       x1="152"
       y1="36"
       x2="125"
       y2="18"
       id="line62" />
    <line
       class="ef"
       x1="155"
       y1="0"
       x2="125"
       y2="-18"
       id="line63" />
    <line
       class="ef"
       x1="155"
       y1="0"
       x2="125"
       y2="18"
       id="line64" />
    <line
       class="ef"
       x1="125"
       y1="-18"
       x2="125"
       y2="18"
       id="line65" />
    <line
       class="ef"
       x1="120"
       y1="-50"
       x2="125"
       y2="-18"
       id="line66" />
    <line
       class="ef"
       x1="120"
       y1="50"
       x2="125"
       y2="18"
       id="line67" />
    <line
       class="ed"
       x1="120"
       y1="-50"
       x2="82"
       y2="-52"
       id="line68" />
    <line
       class="ed"
       x1="120"
       y1="50"
       x2="82"
       y2="52"
       id="line69" />
    <line
       class="ef"
       x1="82"
       y1="-52"
       x2="82"
       y2="52"
       id="line70" />
    <line
       class="ef"
       x1="125"
       y1="-18"
       x2="90"
       y2="-26"
       id="line71" />
    <line
       class="ef"
       x1="125"
       y1="18"
       x2="90"
       y2="26"
       id="line72" />
    <line
       class="ef"
       x1="90"
       y1="-26"
       x2="90"
       y2="26"
       id="line73" />
    <line
       class="ef"
       x1="82"
       y1="-52"
       x2="90"
       y2="-26"
       id="line74" />
    <line
       class="ef"
       x1="82"
       y1="52"
       x2="90"
       y2="26"
       id="line75" />
    <line
       class="ed"
       x1="82"
       y1="-52"
       x2="42"
       y2="-28"
       id="line76" />
    <line
       class="ed"
       x1="82"
       y1="52"
       x2="42"
       y2="28"
       id="line77" />
    <line
       class="ef"
       x1="90"
       y1="-26"
       x2="50"
       y2="-14"
       id="line78" />
    <line
       class="ef"
       x1="90"
       y1="26"
       x2="50"
       y2="14"
       id="line79" />
    <line
       class="ef"
       x1="42"
       y1="-28"
       x2="50"
       y2="-14"
       id="line80" />
    <line
       class="ef"
       x1="42"
       y1="28"
       x2="50"
       y2="14"
       id="line81" />
    <line
       class="ef"
       x1="50"
       y1="-14"
       x2="50"
       y2="14"
       id="line82" />
    <line
       class="ef"
       x1="42"
       y1="-28"
       x2="42"
       y2="28"
       id="line83" />
    <circle
       class="nd"
       cx="198"
       cy="0"
       r="4.5"
       id="circle83" />
    <circle
       class="nd"
       cx="178"
       cy="-18"
       r="4"
       id="circle84" />
    <circle
       class="nd"
       cx="178"
       cy="18"
       r="4"
       id="circle85" />
    <circle
       class="nd"
       cx="155"
       cy="0"
       r="3.8"
       id="circle86" />
    <circle
       class="nd"
       cx="152"
       cy="-36"
       r="4"
       id="circle87" />
    <circle
       class="nd"
       cx="152"
       cy="36"
       r="4"
       id="circle88" />
    <circle
       class="nd"
       cx="125"
       cy="-18"
       r="3.8"
       id="circle89" />
    <circle
       class="nd"
       cx="125"
       cy="18"
       r="3.8"
       id="circle90" />
    <circle
       class="nd"
       cx="120"
       cy="-50"
       r="4"
       id="circle91" />
    <circle
       class="nd"
       cx="120"
       cy="50"
       r="4"
       id="circle92" />
    <circle
       class="nd"
       cx="90"
       cy="-26"
       r="3.8"
       id="circle93" />
    <circle
       class="nd"
       cx="90"
       cy="26"
       r="3.8"
       id="circle94" />
    <circle
       class="nd"
       cx="82"
       cy="-52"
       r="4"
       id="circle95" />
    <circle
       class="nd"
       cx="82"
       cy="52"
       r="4"
       id="circle96" />
    <circle
       class="nd"
       cx="50"
       cy="-14"
       r="3.5"
       id="circle97" />
    <circle
       class="nd"
       cx="50"
       cy="14"
       r="3.5"
       id="circle98" />
    <circle
       class="ndb"
       cx="42"
       cy="-28"
       r="4.1999998"
       id="circle99" />
    <circle
       class="ndb"
       cx="42"
       cy="28"
       r="4.1999998"
       id="circle100" />
    <!-- LEFT LOBE -->
    <line
       class="ed"
       x1="-198"
       y1="0"
       x2="-178"
       y2="-18"
       id="line100" />
    <line
       class="ed"
       x1="-198"
       y1="0"
       x2="-178"
       y2="18"
       id="line101" />
    <line
       class="ef"
       x1="-178"
       y1="-18"
       x2="-178"
       y2="18"
       id="line102" />
    <line
       class="ed"
       x1="-178"
       y1="-18"
       x2="-152"
       y2="-36"
       id="line103" />
    <line
       class="ed"
       x1="-178"
       y1="18"
       x2="-152"
       y2="36"
       id="line104" />
    <line
       class="ef"
       x1="-152"
       y1="-36"
       x2="-152"
       y2="36"
       id="line105" />
    <line
       class="ef"
       x1="-178"
       y1="-18"
       x2="-155"
       y2="0"
       id="line106" />
    <line
       class="ef"
       x1="-178"
       y1="18"
       x2="-155"
       y2="0"
       id="line107" />
    <line
       class="ef"
       x1="-152"
       y1="-36"
       x2="-155"
       y2="0"
       id="line108" />
    <line
       class="ef"
       x1="-152"
       y1="36"
       x2="-155"
       y2="0"
       id="line109" />
    <line
       class="ed"
       x1="-152"
       y1="-36"
       x2="-120"
       y2="-50"
       id="line110" />
    <line
       class="ed"
       x1="-152"
       y1="36"
       x2="-120"
       y2="50"
       id="line111" />
    <line
       class="ef"
       x1="-120"
       y1="-50"
       x2="-120"
       y2="50"
       id="line112" />
    <line
       class="ef"
       x1="-152"
       y1="-36"
       x2="-125"
       y2="-18"
       id="line113" />
    <line
       class="ef"
       x1="-152"
       y1="36"
       x2="-125"
       y2="18"
       id="line114" />
    <line
       class="ef"
       x1="-155"
       y1="0"
       x2="-125"
       y2="-18"
       id="line115" />
    <line
       class="ef"
       x1="-155"
       y1="0"
       x2="-125"
       y2="18"
       id="line116" />
    <line
       class="ef"
       x1="-125"
       y1="-18"
       x2="-125"
       y2="18"
       id="line117" />
    <line
       class="ef"
       x1="-120"
       y1="-50"
       x2="-125"
       y2="-18"
       id="line118" />
    <line
       class="ef"
       x1="-120"
       y1="50"
       x2="-125"
       y2="18"
       id="line119" />
    <line
       class="ed"
       x1="-120"
       y1="-50"
       x2="-82"
       y2="-52"
       id="line120" />
    <line
       class="ed"
       x1="-120"
       y1="50"
       x2="-82"
       y2="52"
       id="line121" />
    <line
       class="ef"
       x1="-82"
       y1="-52"
       x2="-82"
       y2="52"
       id="line122" />
    <line
       class="ef"
       x1="-125"
       y1="-18"
       x2="-90"
       y2="-26"
       id="line123" />
    <line
       class="ef"
       x1="-125"
       y1="18"
       x2="-90"
       y2="26"
       id="line124" />
    <line
       class="ef"
       x1="-90"
       y1="-26"
       x2="-90"
       y2="26"
       id="line125" />
    <line
       class="ef"
       x1="-82"
       y1="-52"
       x2="-90"
       y2="-26"
       id="line126" />
    <line
       class="ef"
       x1="-82"
       y1="52"
       x2="-90"
       y2="26"
       id="line127" />
    <line
       class="ed"
       x1="-82"
       y1="-52"
       x2="-42"
       y2="-28"
       id="line128" />
    <line
       class="ed"
       x1="-82"
       y1="52"
       x2="-42"
       y2="28"
       id="line129" />
    <line
       class="ef"
       x1="-90"
       y1="-26"
       x2="-50"
       y2="-14"
       id="line130" />
    <line
       class="ef"
       x1="-90"
       y1="26"
       x2="-50"
       y2="14"
       id="line131" />
    <line
       class="ef"
       x1="-42"
       y1="-28"
       x2="-50"
       y2="-14"
       id="line132" />
    <line
       class="ef"
       x1="-42"
       y1="28"
       x2="-50"
       y2="14"
       id="line133" />
    <line
       class="ef"
       x1="-50"
       y1="-14"
       x2="-50"
       y2="14"
       id="line134" />
    <line
       class="ef"
       x1="-42"
       y1="-28"
       x2="-42"
       y2="28"
       id="line135" />
    <circle
       class="nd"
       cx="-198"
       cy="0"
       r="4.5"
       id="circle135" />
    <circle
       class="nd"
       cx="-178"
       cy="-18"
       r="4"
       id="circle136" />
    <circle
       class="nd"
       cx="-178"
       cy="18"
       r="4"
       id="circle137" />
    <circle
       class="nd"
       cx="-155"
       cy="0"
       r="3.8"
       id="circle138" />
    <circle
       class="nd"
       cx="-152"
       cy="-36"
       r="4"
       id="circle139" />
    <circle
       class="nd"
       cx="-152"
       cy="36"
       r="4"
       id="circle140" />
    <circle
       class="nd"
       cx="-125"
       cy="-18"
       r="3.8"
       id="circle141" />
    <circle
       class="nd"
       cx="-125"
       cy="18"
       r="3.8"
       id="circle142" />
    <circle
       class="nd"
       cx="-120"
       cy="-50"
       r="4"
       id="circle143" />
    <circle
       class="nd"
       cx="-120"
       cy="50"
       r="4"
       id="circle144" />
    <circle
       class="nd"
       cx="-90"
       cy="-26"
       r="3.8"
       id="circle145" />
    <circle
       class="nd"
       cx="-90"
       cy="26"
       r="3.8"
       id="circle146" />
    <circle
       class="nd"
       cx="-82"
       cy="-52"
       r="4"
       id="circle147" />
    <circle
       class="nd"
       cx="-82"
       cy="52"
       r="4"
       id="circle148" />
    <circle
       class="nd"
       cx="-50"
       cy="-14"
       r="3.5"
       id="circle149" />
    <circle
       class="nd"
       cx="-50"
       cy="14"
       r="3.5"
       id="circle150" />
    <circle
       class="ndb"
       cx="-42"
       cy="-28"
       r="4.1999998"
       id="circle151" />
    <circle
       class="ndb"
       cx="-42"
       cy="28"
       r="4.1999998"
       id="circle152" />
    <!-- Nodal point + nucleus -->
    <circle
       class="hr"
       cx="0"
       cy="0"
       r="14"
       style="opacity:0.5"
       id="circle153" />
    <circle
       class="nuc"
       cx="0"
       cy="0"
       r="8"
       id="circle154" />
  </g>
  <g
     transform="matrix(2.7265437,0,0,2.7265437,1601.0104,546.31109)"
     id="g279">
    <!-- UPPER lobe -->
    <path
       class="lp"
       d="m 0,-16 c 22,-16 50,-64 42,-106 -6,-30 -28,-46 -42,-46 -14,0 -36,16 -42,46 -8,42 20,90 42,106"
       id="path154" />
    <line
       class="ed"
       x1="0"
       y1="-158"
       x2="-14"
       y2="-142"
       id="line154" />
    <line
       class="ed"
       x1="0"
       y1="-158"
       x2="14"
       y2="-142"
       id="line155" />
    <line
       class="ef"
       x1="-14"
       y1="-142"
       x2="14"
       y2="-142"
       id="line156" />
    <line
       class="ed"
       x1="-14"
       y1="-142"
       x2="-28"
       y2="-118"
       id="line157" />
    <line
       class="ed"
       x1="14"
       y1="-142"
       x2="28"
       y2="-118"
       id="line158" />
    <line
       class="ef"
       x1="-28"
       y1="-118"
       x2="28"
       y2="-118"
       id="line159" />
    <line
       class="ef"
       x1="-14"
       y1="-142"
       x2="0"
       y2="-122"
       id="line160" />
    <line
       class="ef"
       x1="14"
       y1="-142"
       x2="0"
       y2="-122"
       id="line161" />
    <line
       class="ef"
       x1="-28"
       y1="-118"
       x2="0"
       y2="-122"
       id="line162" />
    <line
       class="ef"
       x1="28"
       y1="-118"
       x2="0"
       y2="-122"
       id="line163" />
    <line
       class="ed"
       x1="-28"
       y1="-118"
       x2="-40"
       y2="-90"
       id="line164" />
    <line
       class="ed"
       x1="28"
       y1="-118"
       x2="40"
       y2="-90"
       id="line165" />
    <line
       class="ef"
       x1="-40"
       y1="-90"
       x2="40"
       y2="-90"
       id="line166" />
    <line
       class="ef"
       x1="-28"
       y1="-118"
       x2="-14"
       y2="-96"
       id="line167" />
    <line
       class="ef"
       x1="28"
       y1="-118"
       x2="14"
       y2="-96"
       id="line168" />
    <line
       class="ef"
       x1="0"
       y1="-122"
       x2="-14"
       y2="-96"
       id="line169" />
    <line
       class="ef"
       x1="0"
       y1="-122"
       x2="14"
       y2="-96"
       id="line170" />
    <line
       class="ef"
       x1="-14"
       y1="-96"
       x2="14"
       y2="-96"
       id="line171" />
    <line
       class="ef"
       x1="-40"
       y1="-90"
       x2="-14"
       y2="-96"
       id="line172" />
    <line
       class="ef"
       x1="40"
       y1="-90"
       x2="14"
       y2="-96"
       id="line173" />
    <line
       class="ed"
       x1="-40"
       y1="-90"
       x2="-40"
       y2="-60"
       id="line174" />
    <line
       class="ed"
       x1="40"
       y1="-90"
       x2="40"
       y2="-60"
       id="line175" />
    <line
       class="ef"
       x1="-40"
       y1="-60"
       x2="40"
       y2="-60"
       id="line176" />
    <line
       class="ef"
       x1="-14"
       y1="-96"
       x2="-20"
       y2="-68"
       id="line177" />
    <line
       class="ef"
       x1="14"
       y1="-96"
       x2="20"
       y2="-68"
       id="line178" />
    <line
       class="ef"
       x1="-20"
       y1="-68"
       x2="20"
       y2="-68"
       id="line179" />
    <line
       class="ef"
       x1="-40"
       y1="-60"
       x2="-20"
       y2="-68"
       id="line180" />
    <line
       class="ef"
       x1="40"
       y1="-60"
       x2="20"
       y2="-68"
       id="line181" />
    <line
       class="ed"
       x1="-40"
       y1="-60"
       x2="-22"
       y2="-32"
       id="line182" />
    <line
       class="ed"
       x1="40"
       y1="-60"
       x2="22"
       y2="-32"
       id="line183" />
    <line
       class="ef"
       x1="-20"
       y1="-68"
       x2="-10"
       y2="-40"
       id="line184" />
    <line
       class="ef"
       x1="20"
       y1="-68"
       x2="10"
       y2="-40"
       id="line185" />
    <line
       class="ef"
       x1="-10"
       y1="-40"
       x2="10"
       y2="-40"
       id="line186" />
    <line
       class="ef"
       x1="-22"
       y1="-32"
       x2="-10"
       y2="-40"
       id="line187" />
    <line
       class="ef"
       x1="22"
       y1="-32"
       x2="10"
       y2="-40"
       id="line188" />
    <circle
       class="nd"
       cx="0"
       cy="-158"
       r="4"
       id="circle188" />
    <circle
       class="nd"
       cx="-14"
       cy="-142"
       r="3.8"
       id="circle189" />
    <circle
       class="nd"
       cx="14"
       cy="-142"
       r="3.8"
       id="circle190" />
    <circle
       class="nd"
       cx="0"
       cy="-122"
       r="3.5999999"
       id="circle191" />
    <circle
       class="nd"
       cx="-28"
       cy="-118"
       r="3.8"
       id="circle192" />
    <circle
       class="nd"
       cx="28"
       cy="-118"
       r="3.8"
       id="circle193" />
    <circle
       class="nd"
       cx="-14"
       cy="-96"
       r="3.5"
       id="circle194" />
    <circle
       class="nd"
       cx="14"
       cy="-96"
       r="3.5"
       id="circle195" />
    <circle
       class="nd"
       cx="-40"
       cy="-90"
       r="3.8"
       id="circle196" />
    <circle
       class="nd"
       cx="40"
       cy="-90"
       r="3.8"
       id="circle197" />
    <circle
       class="nd"
       cx="-20"
       cy="-68"
       r="3.5"
       id="circle198" />
    <circle
       class="nd"
       cx="20"
       cy="-68"
       r="3.5"
       id="circle199" />
    <circle
       class="nd"
       cx="-40"
       cy="-60"
       r="3.8"
       id="circle200" />
    <circle
       class="nd"
       cx="40"
       cy="-60"
       r="3.8"
       id="circle201" />
    <circle
       class="nd"
       cx="-10"
       cy="-40"
       r="3.2"
       id="circle202" />
    <circle
       class="nd"
       cx="10"
       cy="-40"
       r="3.2"
       id="circle203" />
    <circle
       class="ndb"
       cx="-22"
       cy="-32"
       r="4"
       id="circle204" />
    <circle
       class="ndb"
       cx="22"
       cy="-32"
       r="4"
       id="circle205" />
    <!-- LOWER lobe -->
    <path
       class="lp"
       d="M 0,16 C 22,32 50,80 42,122 36,152 14,168 0,168 -14,168 -36,152 -42,122 -50,80 -22,32 0,16"
       id="path205" />
    <line
       class="ed"
       x1="0"
       y1="158"
       x2="-14"
       y2="142"
       id="line205" />
    <line
       class="ed"
       x1="0"
       y1="158"
       x2="14"
       y2="142"
       id="line206" />
    <line
       class="ef"
       x1="-14"
       y1="142"
       x2="14"
       y2="142"
       id="line207" />
    <line
       class="ed"
       x1="-14"
       y1="142"
       x2="-28"
       y2="118"
       id="line208" />
    <line
       class="ed"
       x1="14"
       y1="142"
       x2="28"
       y2="118"
       id="line209" />
    <line
       class="ef"
       x1="-28"
       y1="118"
       x2="28"
       y2="118"
       id="line210" />
    <line
       class="ef"
       x1="-14"
       y1="142"
       x2="0"
       y2="122"
       id="line211" />
    <line
       class="ef"
       x1="14"
       y1="142"
       x2="0"
       y2="122"
       id="line212" />
    <line
       class="ef"
       x1="-28"
       y1="118"
       x2="0"
       y2="122"
       id="line213" />
    <line
       class="ef"
       x1="28"
       y1="118"
       x2="0"
       y2="122"
       id="line214" />
    <line
       class="ed"
       x1="-28"
       y1="118"
       x2="-40"
       y2="90"
       id="line215" />
    <line
       class="ed"
       x1="28"
       y1="118"
       x2="40"
       y2="90"
       id="line216" />
    <line
       class="ef"
       x1="-40"
       y1="90"
       x2="40"
       y2="90"
       id="line217" />
    <line
       class="ef"
       x1="-28"
       y1="118"
       x2="-14"
       y2="96"
       id="line218" />
    <line
       class="ef"
       x1="28"
       y1="118"
       x2="14"
       y2="96"
       id="line219" />
    <line
       class="ef"
       x1="0"
       y1="122"
       x2="-14"
       y2="96"
       id="line220" />
    <line
       class="ef"
       x1="0"
       y1="122"
       x2="14"
       y2="96"
       id="line221" />
    <line
       class="ef"
       x1="-14"
       y1="96"
       x2="14"
       y2="96"
       id="line222" />
    <line
       class="ef"
       x1="-40"
       y1="90"
       x2="-14"
       y2="96"
       id="line223" />
    <line
       class="ef"
       x1="40"
       y1="90"
       x2="14"
       y2="96"
       id="line224" />
    <line
       class="ed"
       x1="-40"
       y1="90"
       x2="-40"
       y2="60"
       id="line225" />
    <line
       class="ed"
       x1="40"
       y1="90"
       x2="40"
       y2="60"
       id="line226" />
    <line
       class="ef"
       x1="-40"
       y1="60"
       x2="40"
       y2="60"
       id="line227" />
    <line
       class="ef"
       x1="-14"
       y1="96"
       x2="-20"
       y2="68"
       id="line228" />
    <line
       class="ef"
       x1="14"
       y1="96"
       x2="20"
       y2="68"
       id="line229" />
    <line
       class="ef"
       x1="-20"
       y1="68"
       x2="20"
       y2="68"
       id="line230" />
    <line
       class="ef"
       x1="-40"
       y1="60"
       x2="-20"
       y2="68"
       id="line231" />
    <line
       class="ef"
       x1="40"
       y1="60"
       x2="20"
       y2="68"
       id="line232" />
    <line
       class="ed"
       x1="-40"
       y1="60"
       x2="-22"
       y2="32"
       id="line233" />
    <line
       class="ed"
       x1="40"
       y1="60"
       x2="22"
       y2="32"
       id="line234" />
    <line
       class="ef"
       x1="-20"
       y1="68"
       x2="-10"
       y2="40"
       id="line235" />
    <line
       class="ef"
       x1="20"
       y1="68"
       x2="10"
       y2="40"
       id="line236" />
    <line
       class="ef"
       x1="-10"
       y1="40"
       x2="10"
       y2="40"
       id="line237" />
    <line
       class="ef"
       x1="-22"
       y1="32"
       x2="-10"
       y2="40"
       id="line238" />
    <line
       class="ef"
       x1="22"
       y1="32"
       x2="10"
       y2="40"
       id="line239" />
    <circle
       class="nd"
       cx="0"
       cy="158"
       r="4"
       id="circle239" />
    <circle
       class="nd"
       cx="-14"
       cy="142"
       r="3.8"
       id="circle240" />
    <circle
       class="nd"
       cx="14"
       cy="142"
       r="3.8"
       id="circle241" />
    <circle
       class="nd"
       cx="0"
       cy="122"
       r="3.5999999"
       id="circle242" />
    <circle
       class="nd"
       cx="-28"
       cy="118"
       r="3.8"
       id="circle243" />
    <circle
       class="nd"
       cx="28"
       cy="118"
       r="3.8"
       id="circle244" />
    <circle
       class="nd"
       cx="-14"
       cy="96"
       r="3.5"
       id="circle245" />
    <circle
       class="nd"
       cx="14"
       cy="96"
       r="3.5"
       id="circle246" />
    <circle
       class="nd"
       cx="-40"
       cy="90"
       r="3.8"
       id="circle247" />
    <circle
       class="nd"
       cx="40"
       cy="90"
       r="3.8"
       id="circle248" />
    <circle
       class="nd"
       cx="-20"
       cy="68"
       r="3.5"
       id="circle249" />
    <circle
       class="nd"
       cx="20"
       cy="68"
       r="3.5"
       id="circle250" />
    <circle
       class="nd"
       cx="-40"
       cy="60"
       r="3.8"
       id="circle251" />
    <circle
       class="nd"
       cx="40"
       cy="60"
       r="3.8"
       id="circle252" />
    <circle
       class="nd"
       cx="-10"
       cy="40"
       r="3.2"
       id="circle253" />
    <circle
       class="nd"
       cx="10"
       cy="40"
       r="3.2"
       id="circle254" />
    <circle
       class="ndb"
       cx="-22"
       cy="32"
       r="4"
       id="circle255" />
    <circle
       class="ndb"
       cx="22"
       cy="32"
       r="4"
       id="circle256" />
    <!-- TORUS ring -->
    <ellipse
       class="lp"
       cx="0"
       cy="0"
       rx="72"
       ry="20"
       id="ellipse256" />
    <ellipse
       class="hr"
       cx="0"
       cy="0"
       rx="52"
       ry="14"
       id="ellipse257" />
    <!-- Torus nodes outer -->
    <circle
       class="nd"
       cx="72"
       cy="0"
       r="4"
       id="circle257" />
    <circle
       class="nd"
       cx="51"
       cy="-14"
       r="3.8"
       id="circle258" />
    <circle
       class="nd"
       cx="0"
       cy="-20"
       r="4"
       id="circle259" />
    <circle
       class="nd"
       cx="-51"
       cy="-14"
       r="3.8"
       id="circle260" />
    <circle
       class="nd"
       cx="-72"
       cy="0"
       r="4"
       id="circle261" />
    <circle
       class="nd"
       cx="-51"
       cy="14"
       r="3.8"
       id="circle262" />
    <circle
       class="nd"
       cx="0"
       cy="20"
       r="4"
       id="circle263" />
    <circle
       class="nd"
       cx="51"
       cy="14"
       r="3.8"
       id="circle264" />
    <!-- Torus nodes inner -->
    <circle
       class="nd"
       cx="52"
       cy="0"
       r="3.5"
       id="circle265" />
    <circle
       class="nd"
       cx="37"
       cy="-10"
       r="3.3"
       id="circle266" />
    <circle
       class="nd"
       cx="0"
       cy="-14"
       r="3.5"
       id="circle267" />
    <circle
       class="nd"
       cx="-37"
       cy="-10"
       r="3.3"
       id="circle268" />
    <circle
       class="nd"
       cx="-52"
       cy="0"
       r="3.5"
       id="circle269" />
    <circle
       class="nd"
       cx="-37"
       cy="10"
       r="3.3"
       id="circle270" />
    <circle
       class="nd"
       cx="0"
       cy="14"
       r="3.5"
       id="circle271" />
    <circle
       class="nd"
       cx="37"
       cy="10"
       r="3.3"
       id="circle272" />
    <!-- Torus spokes -->
    <line
       class="ef"
       x1="52"
       y1="0"
       x2="72"
       y2="0"
       id="line272" />
    <line
       class="ef"
       x1="-52"
       y1="0"
       x2="-72"
       y2="0"
       id="line273" />
    <line
       class="ef"
       x1="37"
       y1="-10"
       x2="51"
       y2="-14"
       id="line274" />
    <line
       class="ef"
       x1="-37"
       y1="-10"
       x2="-51"
       y2="-14"
       id="line275" />
    <line
       class="ef"
       x1="37"
       y1="10"
       x2="51"
       y2="14"
       id="line276" />
    <line
       class="ef"
       x1="-37"
       y1="10"
       x2="-51"
       y2="14"
       id="line277" />
    <line
       class="ef"
       x1="0"
       y1="-14"
       x2="0"
       y2="-20"
       id="line278" />
    <line
       class="ef"
       x1="0"
       y1="14"
       x2="0"
       y2="20"
       id="line279" />
    <!-- Nucleus -->
    <circle
       class="nuc"
       cx="0"
       cy="0"
       r="8"
       id="circle279" />
  </g>
  <!-- Panel dividers -->
  <!-- Labels -->
  <g
     id="g284"
     transform="translate(-94.517711)">
    <text
       class="lbl"
       x="196.33243"
       y="153.95386"
       text-anchor="middle"
       id="text281"
       style="font-size:93.0155px;text-align:start;text-anchor:start;stroke-width:4.79145"><tspan
         sodipodi:role="line"
         id="tspan2"
         x="196.33243"
         y="153.95386"
         style="stroke-width:4.79145">DENSITY FUNCTIONAL</tspan><tspan
         sodipodi:role="line"
         x="196.33243"
         y="270.22324"
         style="stroke-width:4.79145"
         id="tspan3">THEORY</tspan></text>
    <text
       class="lbs"
       x="953.20941"
       y="873.56854"
       text-anchor="middle"
       id="text282"
       style="stroke-width:3.84626"><tspan
         sodipodi:role="line"
         id="tspan285"
         x="953.20941"
         y="873.56854"
         style="font-size:64.0002px;stroke-width:3.84626">Dr Rudra Banerjee</tspan><tspan
         sodipodi:role="line"
         id="tspan286"
         x="953.20941"
         y="943.98981"
         style="font-size:53.3334px;stroke-width:3.84626">MAVENs group</tspan><tspan
         sodipodi:role="line"
         x="956.09412"
         y="1005.8672"
         id="tspan287"
         style="font-size:48.0001px;stroke-width:3.84626">SRMIST</tspan></text>
  </g>
</svg>
